<svg height="160mm" version="1.1" viewBox="0 0 160 160" width="160mm"><path d="M 1.5 4.95 L 155.05 4.95 L 155.05 7.25 L 4.95 7.25 L 4.95 9.549999 L 155.05 9.55 L 155.05 11.849999 L 4.95 11.85 L 4.95 14.15 L 155.05 14.150001 L 155.05 16.45 L 4.95 16.45 L 4.95 18.75 L 155.05 18.75 L 155.05 21.05 L 4.95 21.05 L 4.95 23.349998 L 155.05 23.349998 L 155.05 25.649998 L 4.95 25.649998 L 4.95 27.949997 L 158.5 27.949997" fill="none" id="1" stroke="black" stroke-width="0.9"/><path d="M 1.5 30.249996 L 155.05 30.249996 L 155.05 32.549995 L 4.95 32.549995 L 4.95 34.85 L 155.05 34.849995 L 155.05 37.149998 L 4.95 37.149994 L 4.95 39.449997 L 155.05 39.449993 L 155.05 41.749996 L 4.95 41.749992 L 4.95 44.049995 L 155.05 44.04999 L 155.05 46.349995 L 4.95 46.34999 L 4.95 48.649994 L 155.05 48.64999 L 155.05 50.949993 L 4.95 50.94999 L 4.95 53.249992 L 158.5 53.24999" fill="none" id="2" stroke="black" stroke-width="0.9"/><path d="M 1.5 55.549988 L 155.05 55.549988 L 155.05 57.84999 L 4.95 57.849987 L 4.95 60.14999 L 155.05 60.149986 L 155.05 62.44999 L 4.95 62.449986 L 4.95 64.749985 L 155.05 64.749985 L 155.05 67.04999 L 4.95 67.04999 L 4.95 69.34999 L 155.05 69.34999 L 155.05 71.649994 L 4.95 71.649994 L 4.95 73.95 L 155.05 73.95 L 155.05 76.25 L 4.95 76.25 L 4.95 78.55 L 158.5 78.55" fill="none" id="3" stroke="black" stroke-width="0.9"/><path d="M 1.5 80.850006 L 155.05 80.850006 L 155.05 83.15001 L 4.95 83.15001 L 4.95 85.45001 L 155.05 85.45001 L 155.05 87.750015 L 4.95 87.750015 L 4.95 90.05002 L 155.05 90.05002 L 155.05 92.35002 L 4.95 92.35002 L 4.95 94.650024 L 155.05 94.650024 L 155.05 96.95003 L 4.95 96.95003 L 4.95 99.25003 L 155.05 99.25003 L 155.05 101.55003 L 4.95 101.55003 L 4.95 103.85004 L 158.5 103.85004" fill="none" id="4" stroke="black" stroke-width="0.9"/><path d="M 1.5 106.15004 L 155.05 106.15004 L 155.05 108.45004 L 4.95 108.45004 L 4.95 110.750046 L 155.05 110.750046 L 155.05 113.05005 L 4.95 113.05005 L 4.95 115.35005 L 155.05 115.35005 L 155.05 117.650055 L 4.95 117.650055 L 4.95 119.95006 L 155.05 119.95006 L 155.05 122.25006 L 4.95 122.25006 L 4.95 124.550064 L 155.05 124.550064 L 155.05 126.85007 L 4.95 126.85007 L 4.95 129.15005 L 158.5 129.15007" fill="none" id="5" stroke="black" stroke-width="0.9"/><path d="M 1.5 131.45007 L 155.05 131.45007 L 155.05 133.75006 L 4.95 133.75008 L 4.95 136.05006 L 155.05 136.05008 L 155.05 138.35007 L 4.95 138.35008 L 4.95 140.65007 L 155.05 140.65009 L 155.05 142.95007 L 4.95 142.95009 L 4.95 145.25008 L 155.05 145.25009 L 155.05 147.55008 L 4.95 147.5501 L 4.95 149.85008 L 155.05 149.8501 L 155.05 152.15009 L 4.95 152.1501 L 4.95 154.45009 L 158.5 154.4501" fill="none" id="6" stroke="black" stroke-width="0.9"/><path d="M 78.0 1.5 L 1.5 1.5 L 1.5 131.90007" fill="none" id="7" stroke="black" stroke-width="2.0"/><path d="M 82.0 1.5 L 158.5 1.5 L 158.5 154.9001" fill="none" id="8" stroke="black" stroke-width="2.0"/></svg>