solid LCD Mount Front
facet normal 0.0 0.0 -1.0
  outer loop
    vertex 0.9999999999999999 57.0 0.0
    vertex 12.4 51.49999999999999 0.0
    vertex 0.9999999999999999 0.9999999999999999 0.0
  endloop
endfacet
facet normal 0.0 0.0 -1.0
  outer loop
    vertex 12.4 51.49999999999999 0.0
    vertex 0.9999999999999999 57.0 0.0
    vertex 176.0 57.0 0.0
  endloop
endfacet
facet normal 0.0 0.0 -1.0
  outer loop
    vertex 0.9999999999999999 0.9999999999999999 0.0
    vertex 12.4 51.49999999999999 0.0
    vertex 10.4 12.0 0.0
  endloop
endfacet
facet normal 0.0 0.0 -1.0
  outer loop
    vertex 10.4 12.0 0.0
    vertex 12.4 51.49999999999999 0.0
    vertex 10.57037086855466 13.294095225512603 0.0
  endloop
endfacet
facet normal 0.0 0.0 -1.0
  outer loop
    vertex 10.57037086855466 13.294095225512603 0.0
    vertex 12.4 51.49999999999999 0.0
    vertex 11.400000000000002 28.999999999999996 0.0
  endloop
endfacet
facet normal 0.0 0.0 -1.0
  outer loop
    vertex 10.57037086855466 13.294095225512603 0.0
    vertex 11.400000000000002 28.999999999999996 0.0
    vertex 11.069872981077808 14.499999999999998 0.0
  endloop
endfacet
facet normal 0.0 0.0 -1.0
  outer loop
    vertex 11.400000000000002 28.999999999999996 0.0
    vertex 12.4 51.49999999999999 0.0
    vertex 11.53629669484373 30.035276180410083 0.0
  endloop
endfacet
facet normal 0.0 0.0 -1.0
  outer loop
    vertex 11.53629669484373 30.035276180410083 0.0
    vertex 12.4 51.49999999999999 0.0
    vertex 11.935898384862247 31.0 0.0
  endloop
endfacet
facet normal 0.0 0.0 -1.0
  outer loop
    vertex 12.4 51.49999999999999 0.0
    vertex 176.0 57.0 0.0
    vertex 18.4 51.49999999999999 0.0
  endloop
endfacet
facet normal 0.0 0.0 -1.0
  outer loop
    vertex 18.4 51.49999999999999 0.0
    vertex 176.0 57.0 0.0
    vertex 18.4 50.0 0.0
  endloop
endfacet
facet normal 0.0 0.0 -1.0
  outer loop
    vertex 18.4 50.0 0.0
    vertex 176.0 57.0 0.0
    vertex 18.4 48.5 0.0
  endloop
endfacet
facet normal 0.0 0.0 -1.0
  outer loop
    vertex 18.4 48.5 0.0
    vertex 176.0 57.0 0.0
    vertex 18.4 47.0 0.0
  endloop
endfacet
facet normal 0.0 0.0 -1.0
  outer loop
    vertex 18.4 47.0 0.0
    vertex 176.0 57.0 0.0
    vertex 18.4 45.49999999999999 0.0
  endloop
endfacet
facet normal 0.0 0.0 -1.0
  outer loop
    vertex 18.4 45.49999999999999 0.0
    vertex 176.0 57.0 0.0
    vertex 18.4 44.0 0.0
  endloop
endfacet
facet normal 0.0 0.0 -1.0
  outer loop
    vertex 18.4 44.0 0.0
    vertex 176.0 57.0 0.0
    vertex 51.99999999999999 38.99999999999999 0.0
  endloop
endfacet
facet normal 0.0 0.0 -1.0
  outer loop
    vertex 18.4 44.0 0.0
    vertex 51.99999999999999 38.99999999999999 0.0
    vertex 18.864101615137752 30.999999999999993 0.0
  endloop
endfacet
facet normal 0.0 0.0 -1.0
  outer loop
    vertex 18.864101615137752 30.999999999999993 0.0
    vertex 51.99999999999999 38.99999999999999 0.0
    vertex 19.26370330515627 30.035276180410076 0.0
  endloop
endfacet
facet normal 0.0 0.0 -1.0
  outer loop
    vertex 19.26370330515627 30.035276180410076 0.0
    vertex 51.99999999999999 38.99999999999999 0.0
    vertex 19.4 28.999999999999996 0.0
  endloop
endfacet
facet normal 0.0 0.0 -1.0
  outer loop
    vertex 19.4 28.999999999999996 0.0
    vertex 51.99999999999999 38.99999999999999 0.0
    vertex 19.73012701892219 14.500000000000002 0.0
  endloop
endfacet
facet normal 0.0 0.0 -1.0
  outer loop
    vertex 19.73012701892219 14.500000000000002 0.0
    vertex 51.99999999999999 38.99999999999999 0.0
    vertex 20.22962913144534 13.294095225512608 0.0
  endloop
endfacet
facet normal 0.0 0.0 -1.0
  outer loop
    vertex 20.22962913144534 13.294095225512608 0.0
    vertex 51.99999999999999 38.99999999999999 0.0
    vertex 20.4 12.000000000000002 0.0
  endloop
endfacet
facet normal 0.0 0.0 -1.0
  outer loop
    vertex 51.99999999999999 38.99999999999999 0.0
    vertex 176.0 57.0 0.0
    vertex 128.5 38.99999999999999 0.0
  endloop
endfacet
facet normal 0.0 0.0 -1.0
  outer loop
    vertex 128.5 38.99999999999999 0.0
    vertex 176.0 57.0 0.0
    vertex 128.5 12.500000000000002 0.0
  endloop
endfacet
facet normal 0.0 0.0 -1.0
  outer loop
    vertex 0.9999999999999999 0.9999999999999999 0.0
    vertex 15.4 7.000000000000001 0.0
    vertex 176.0 0.9999999999999999 0.0
  endloop
endfacet
facet normal 0.0 0.0 -1.0
  outer loop
    vertex 15.4 7.000000000000001 0.0
    vertex 0.9999999999999999 0.9999999999999999 0.0
    vertex 14.105904774487398 7.17037086855466 0.0
  endloop
endfacet
facet normal 0.0 0.0 -1.0
  outer loop
    vertex 14.105904774487398 7.17037086855466 0.0
    vertex 0.9999999999999999 0.9999999999999999 0.0
    vertex 12.900000000000002 7.669872981077807 0.0
  endloop
endfacet
facet normal 0.0 0.0 -1.0
  outer loop
    vertex 12.900000000000002 7.669872981077807 0.0
    vertex 0.9999999999999999 0.9999999999999999 0.0
    vertex 11.864466094067263 8.464466094067264 0.0
  endloop
endfacet
facet normal 0.0 0.0 -1.0
  outer loop
    vertex 11.864466094067263 8.464466094067264 0.0
    vertex 0.9999999999999999 0.9999999999999999 0.0
    vertex 11.069872981077808 9.500000000000002 0.0
  endloop
endfacet
facet normal 0.0 0.0 -1.0
  outer loop
    vertex 11.069872981077808 9.500000000000002 0.0
    vertex 0.9999999999999999 0.9999999999999999 0.0
    vertex 10.57037086855466 10.705904774487397 0.0
  endloop
endfacet
facet normal 0.0 0.0 -1.0
  outer loop
    vertex 10.57037086855466 10.705904774487397 0.0
    vertex 0.9999999999999999 0.9999999999999999 0.0
    vertex 10.4 12.0 0.0
  endloop
endfacet
facet normal 0.0 0.0 -1.0
  outer loop
    vertex 176.0 0.9999999999999999 0.0
    vertex 15.4 7.000000000000001 0.0
    vertex 16.69409522551261 7.170370868554661 0.0
  endloop
endfacet
facet normal 0.0 0.0 -1.0
  outer loop
    vertex 176.0 0.9999999999999999 0.0
    vertex 16.69409522551261 7.170370868554661 0.0
    vertex 17.900000000000002 7.669872981077811 0.0
  endloop
endfacet
facet normal 0.0 0.0 -1.0
  outer loop
    vertex 176.0 0.9999999999999999 0.0
    vertex 17.900000000000002 7.669872981077811 0.0
    vertex 18.935533905932736 8.464466094067266 0.0
  endloop
endfacet
facet normal 0.0 0.0 -1.0
  outer loop
    vertex 176.0 0.9999999999999999 0.0
    vertex 18.935533905932736 8.464466094067266 0.0
    vertex 19.730127018922197 9.500000000000005 0.0
  endloop
endfacet
facet normal 0.0 0.0 -1.0
  outer loop
    vertex 176.0 0.9999999999999999 0.0
    vertex 19.730127018922197 9.500000000000005 0.0
    vertex 20.22962913144534 10.705904774487399 0.0
  endloop
endfacet
facet normal 0.0 0.0 -1.0
  outer loop
    vertex 176.0 0.9999999999999999 0.0
    vertex 20.22962913144534 10.705904774487399 0.0
    vertex 20.4 12.000000000000002 0.0
  endloop
endfacet
facet normal 0.0 0.0 -1.0
  outer loop
    vertex 176.0 0.9999999999999999 0.0
    vertex 20.4 12.000000000000002 0.0
    vertex 51.99999999999999 12.500000000000002 0.0
  endloop
endfacet
facet normal 0.0 0.0 -1.0
  outer loop
    vertex 51.99999999999999 12.500000000000002 0.0
    vertex 20.4 12.000000000000002 0.0
    vertex 51.99999999999999 38.99999999999999 0.0
  endloop
endfacet
facet normal 0.0 0.0 -1.0
  outer loop
    vertex 176.0 0.9999999999999999 0.0
    vertex 51.99999999999999 12.500000000000002 0.0
    vertex 128.5 12.500000000000002 0.0
  endloop
endfacet
facet normal 0.0 0.0 -1.0
  outer loop
    vertex 176.0 0.9999999999999999 0.0
    vertex 128.5 12.500000000000002 0.0
    vertex 176.0 57.0 0.0
  endloop
endfacet
facet normal 0.0 0.0 -1.0
  outer loop
    vertex 11.400000000000002 28.999999999999996 0.0
    vertex 11.864466094067263 15.535533905932736 0.0
    vertex 11.069872981077808 14.499999999999998 0.0
  endloop
endfacet
facet normal 0.0 0.0 -1.0
  outer loop
    vertex 11.864466094067263 15.535533905932736 0.0
    vertex 11.400000000000002 28.999999999999996 0.0
    vertex 11.53629669484373 27.964723819589917 0.0
  endloop
endfacet
facet normal 0.0 0.0 -1.0
  outer loop
    vertex 11.864466094067263 15.535533905932736 0.0
    vertex 11.53629669484373 27.964723819589917 0.0
    vertex 11.935898384862247 27.0 0.0
  endloop
endfacet
facet normal 0.0 0.0 -1.0
  outer loop
    vertex 11.864466094067263 15.535533905932736 0.0
    vertex 11.935898384862247 27.0 0.0
    vertex 12.899999999999999 16.33012701892219 0.0
  endloop
endfacet
facet normal 0.0 0.0 -1.0
  outer loop
    vertex 12.899999999999999 16.33012701892219 0.0
    vertex 11.935898384862247 27.0 0.0
    vertex 12.57157287525381 26.171572875253805 0.0
  endloop
endfacet
facet normal 0.0 0.0 -1.0
  outer loop
    vertex 12.899999999999999 16.33012701892219 0.0
    vertex 12.57157287525381 26.171572875253805 0.0
    vertex 13.399999999999999 25.535898384862247 0.0
  endloop
endfacet
facet normal 0.0 0.0 -1.0
  outer loop
    vertex 12.899999999999999 16.33012701892219 0.0
    vertex 13.399999999999999 25.535898384862247 0.0
    vertex 14.105904774487394 16.82962913144534 0.0
  endloop
endfacet
facet normal 0.0 0.0 -1.0
  outer loop
    vertex 14.105904774487394 16.82962913144534 0.0
    vertex 13.399999999999999 25.535898384862247 0.0
    vertex 14.364723819589917 25.136296694843725 0.0
  endloop
endfacet
facet normal 0.0 0.0 -1.0
  outer loop
    vertex 14.105904774487394 16.82962913144534 0.0
    vertex 14.364723819589917 25.136296694843725 0.0
    vertex 15.4 17.0 0.0
  endloop
endfacet
facet normal 0.0 0.0 -1.0
  outer loop
    vertex 15.4 17.0 0.0
    vertex 14.364723819589917 25.136296694843725 0.0
    vertex 15.4 25.0 0.0
  endloop
endfacet
facet normal 0.0 0.0 -1.0
  outer loop
    vertex 15.4 17.0 0.0
    vertex 15.4 25.0 0.0
    vertex 16.43527618041008 25.136296694843725 0.0
  endloop
endfacet
facet normal 0.0 0.0 -1.0
  outer loop
    vertex 15.4 17.0 0.0
    vertex 16.43527618041008 25.136296694843725 0.0
    vertex 16.6940952255126 16.82962913144534 0.0
  endloop
endfacet
facet normal 0.0 0.0 -1.0
  outer loop
    vertex 16.6940952255126 16.82962913144534 0.0
    vertex 16.43527618041008 25.136296694843725 0.0
    vertex 17.4 25.535898384862247 0.0
  endloop
endfacet
facet normal 0.0 0.0 -1.0
  outer loop
    vertex 16.6940952255126 16.82962913144534 0.0
    vertex 17.4 25.535898384862247 0.0
    vertex 17.9 16.330127018922195 0.0
  endloop
endfacet
facet normal 0.0 0.0 -1.0
  outer loop
    vertex 17.9 16.330127018922195 0.0
    vertex 17.4 25.535898384862247 0.0
    vertex 18.228427124746187 26.171572875253805 0.0
  endloop
endfacet
facet normal 0.0 0.0 -1.0
  outer loop
    vertex 17.9 16.330127018922195 0.0
    vertex 18.228427124746187 26.171572875253805 0.0
    vertex 18.935533905932736 15.535533905932738 0.0
  endloop
endfacet
facet normal 0.0 0.0 -1.0
  outer loop
    vertex 18.935533905932736 15.535533905932738 0.0
    vertex 18.228427124746187 26.171572875253805 0.0
    vertex 18.864101615137752 26.999999999999996 0.0
  endloop
endfacet
facet normal 0.0 0.0 -1.0
  outer loop
    vertex 18.935533905932736 15.535533905932738 0.0
    vertex 18.864101615137752 26.999999999999996 0.0
    vertex 19.26370330515627 27.964723819589913 0.0
  endloop
endfacet
facet normal 0.0 0.0 -1.0
  outer loop
    vertex 18.935533905932736 15.535533905932738 0.0
    vertex 19.26370330515627 27.964723819589913 0.0
    vertex 19.73012701892219 14.500000000000002 0.0
  endloop
endfacet
facet normal 0.0 0.0 -1.0
  outer loop
    vertex 19.73012701892219 14.500000000000002 0.0
    vertex 19.26370330515627 27.964723819589913 0.0
    vertex 19.4 28.999999999999996 0.0
  endloop
endfacet
facet normal 0.0 0.0 -1.0
  outer loop
    vertex 11.935898384862247 31.0 0.0
    vertex 12.4 44.0 0.0
    vertex 12.57157287525381 31.828427124746188 0.0
  endloop
endfacet
facet normal 0.0 0.0 -1.0
  outer loop
    vertex 12.4 44.0 0.0
    vertex 11.935898384862247 31.0 0.0
    vertex 12.4 51.49999999999999 0.0
  endloop
endfacet
facet normal 0.0 0.0 -1.0
  outer loop
    vertex 12.4 44.0 0.0
    vertex 12.4 51.49999999999999 0.0
    vertex 12.4 50.0 0.0
  endloop
endfacet
facet normal 0.0 0.0 -1.0
  outer loop
    vertex 12.4 44.0 0.0
    vertex 12.4 50.0 0.0
    vertex 12.4 48.5 0.0
  endloop
endfacet
facet normal 0.0 0.0 -1.0
  outer loop
    vertex 12.4 44.0 0.0
    vertex 12.4 48.5 0.0
    vertex 12.4 47.0 0.0
  endloop
endfacet
facet normal 0.0 0.0 -1.0
  outer loop
    vertex 12.4 44.0 0.0
    vertex 12.4 47.0 0.0
    vertex 12.4 45.49999999999999 0.0
  endloop
endfacet
facet normal 0.0 0.0 -1.0
  outer loop
    vertex 12.57157287525381 31.828427124746188 0.0
    vertex 12.4 44.0 0.0
    vertex 18.4 44.0 0.0
  endloop
endfacet
facet normal 0.0 0.0 -1.0
  outer loop
    vertex 12.57157287525381 31.828427124746188 0.0
    vertex 18.4 44.0 0.0
    vertex 13.4 32.46410161513775 0.0
  endloop
endfacet
facet normal 0.0 0.0 -1.0
  outer loop
    vertex 13.4 32.46410161513775 0.0
    vertex 18.4 44.0 0.0
    vertex 14.364723819589917 32.86370330515627 0.0
  endloop
endfacet
facet normal 0.0 0.0 -1.0
  outer loop
    vertex 14.364723819589917 32.86370330515627 0.0
    vertex 18.4 44.0 0.0
    vertex 15.4 32.99999999999999 0.0
  endloop
endfacet
facet normal 0.0 0.0 -1.0
  outer loop
    vertex 15.4 32.99999999999999 0.0
    vertex 18.4 44.0 0.0
    vertex 16.435276180410085 32.86370330515627 0.0
  endloop
endfacet
facet normal 0.0 0.0 -1.0
  outer loop
    vertex 16.435276180410085 32.86370330515627 0.0
    vertex 18.4 44.0 0.0
    vertex 17.400000000000002 32.46410161513775 0.0
  endloop
endfacet
facet normal 0.0 0.0 -1.0
  outer loop
    vertex 17.400000000000002 32.46410161513775 0.0
    vertex 18.4 44.0 0.0
    vertex 18.22842712474619 31.828427124746188 0.0
  endloop
endfacet
facet normal 0.0 0.0 -1.0
  outer loop
    vertex 18.22842712474619 31.828427124746188 0.0
    vertex 18.4 44.0 0.0
    vertex 18.864101615137752 30.999999999999993 0.0
  endloop
endfacet
facet normal 0.0 0.0 -1.0
  outer loop
    vertex 18.4 47.0 0.0
    vertex 12.4 45.49999999999999 0.0
    vertex 12.4 47.0 0.0
  endloop
endfacet
facet normal 0.0 0.0 -1.0
  outer loop
    vertex 12.4 45.49999999999999 0.0
    vertex 18.4 47.0 0.0
    vertex 18.4 45.49999999999999 0.0
  endloop
endfacet
facet normal 0.0 0.0 -1.0
  outer loop
    vertex 18.4 50.0 0.0
    vertex 12.4 48.5 0.0
    vertex 12.4 50.0 0.0
  endloop
endfacet
facet normal 0.0 0.0 -1.0
  outer loop
    vertex 12.4 48.5 0.0
    vertex 18.4 50.0 0.0
    vertex 18.4 48.5 0.0
  endloop
endfacet
facet normal -0.0 -0.0 1.0
  outer loop
    vertex 12.57157287525381 31.828427124746188 1.9999999999999998
    vertex 12.4 44.0 1.9999999999999998
    vertex 11.935898384862247 31.0 1.9999999999999998
  endloop
endfacet
facet normal -0.0 -0.0 1.0
  outer loop
    vertex 12.4 44.0 1.9999999999999998
    vertex 12.57157287525381 31.828427124746188 1.9999999999999998
    vertex 18.4 44.0 1.9999999999999998
  endloop
endfacet
facet normal -0.0 -0.0 1.0
  outer loop
    vertex 18.4 44.0 1.9999999999999998
    vertex 12.57157287525381 31.828427124746188 1.9999999999999998
    vertex 13.4 32.46410161513775 1.9999999999999998
  endloop
endfacet
facet normal -0.0 -0.0 1.0
  outer loop
    vertex 18.4 44.0 1.9999999999999998
    vertex 13.4 32.46410161513775 1.9999999999999998
    vertex 14.364723819589917 32.86370330515627 1.9999999999999998
  endloop
endfacet
facet normal -0.0 -0.0 1.0
  outer loop
    vertex 18.4 44.0 1.9999999999999998
    vertex 14.364723819589917 32.86370330515627 1.9999999999999998
    vertex 15.4 32.99999999999999 1.9999999999999998
  endloop
endfacet
facet normal -0.0 -0.0 1.0
  outer loop
    vertex 18.4 44.0 1.9999999999999998
    vertex 15.4 32.99999999999999 1.9999999999999998
    vertex 16.435276180410085 32.86370330515627 1.9999999999999998
  endloop
endfacet
facet normal -0.0 -0.0 1.0
  outer loop
    vertex 18.4 44.0 1.9999999999999998
    vertex 16.435276180410085 32.86370330515627 1.9999999999999998
    vertex 17.400000000000002 32.46410161513775 1.9999999999999998
  endloop
endfacet
facet normal -0.0 -0.0 1.0
  outer loop
    vertex 18.4 44.0 1.9999999999999998
    vertex 17.400000000000002 32.46410161513775 1.9999999999999998
    vertex 18.22842712474619 31.828427124746188 1.9999999999999998
  endloop
endfacet
facet normal -0.0 -0.0 1.0
  outer loop
    vertex 18.4 44.0 1.9999999999999998
    vertex 18.22842712474619 31.828427124746188 1.9999999999999998
    vertex 18.864101615137752 30.999999999999993 1.9999999999999998
  endloop
endfacet
facet normal -0.0 -0.0 1.0
  outer loop
    vertex 18.4 44.0 1.9999999999999998
    vertex 18.864101615137752 30.999999999999993 1.9999999999999998
    vertex 18.4 45.49999999999999 1.9999999999999998
  endloop
endfacet
facet normal -0.0 -0.0 1.0
  outer loop
    vertex 18.4 45.49999999999999 1.9999999999999998
    vertex 18.864101615137752 30.999999999999993 1.9999999999999998
    vertex 18.4 47.0 1.9999999999999998
  endloop
endfacet
facet normal -0.0 -0.0 1.0
  outer loop
    vertex 18.4 47.0 1.9999999999999998
    vertex 18.864101615137752 30.999999999999993 1.9999999999999998
    vertex 18.4 48.5 1.9999999999999998
  endloop
endfacet
facet normal -0.0 -0.0 1.0
  outer loop
    vertex 18.4 48.5 1.9999999999999998
    vertex 18.864101615137752 30.999999999999993 1.9999999999999998
    vertex 18.4 50.0 1.9999999999999998
  endloop
endfacet
facet normal -0.0 -0.0 1.0
  outer loop
    vertex 18.4 50.0 1.9999999999999998
    vertex 18.864101615137752 30.999999999999993 1.9999999999999998
    vertex 18.4 51.49999999999999 1.9999999999999998
  endloop
endfacet
facet normal -0.0 -0.0 1.0
  outer loop
    vertex 11.864466094067263 15.535533905932736 1.9999999999999998
    vertex 11.400000000000002 28.999999999999996 1.9999999999999998
    vertex 11.069872981077808 14.499999999999998 1.9999999999999998
  endloop
endfacet
facet normal -0.0 -0.0 1.0
  outer loop
    vertex 11.400000000000002 28.999999999999996 1.9999999999999998
    vertex 11.864466094067263 15.535533905932736 1.9999999999999998
    vertex 11.53629669484373 27.964723819589917 1.9999999999999998
  endloop
endfacet
facet normal -0.0 -0.0 1.0
  outer loop
    vertex 11.53629669484373 27.964723819589917 1.9999999999999998
    vertex 11.864466094067263 15.535533905932736 1.9999999999999998
    vertex 11.935898384862247 27.0 1.9999999999999998
  endloop
endfacet
facet normal -0.0 -0.0 1.0
  outer loop
    vertex 11.935898384862247 27.0 1.9999999999999998
    vertex 11.864466094067263 15.535533905932736 1.9999999999999998
    vertex 12.899999999999999 16.33012701892219 1.9999999999999998
  endloop
endfacet
facet normal -0.0 -0.0 1.0
  outer loop
    vertex 11.935898384862247 27.0 1.9999999999999998
    vertex 12.899999999999999 16.33012701892219 1.9999999999999998
    vertex 12.57157287525381 26.171572875253805 1.9999999999999998
  endloop
endfacet
facet normal -0.0 -0.0 1.0
  outer loop
    vertex 12.57157287525381 26.171572875253805 1.9999999999999998
    vertex 12.899999999999999 16.33012701892219 1.9999999999999998
    vertex 13.399999999999999 25.535898384862247 1.9999999999999998
  endloop
endfacet
facet normal -0.0 -0.0 1.0
  outer loop
    vertex 13.399999999999999 25.535898384862247 1.9999999999999998
    vertex 12.899999999999999 16.33012701892219 1.9999999999999998
    vertex 14.105904774487394 16.82962913144534 1.9999999999999998
  endloop
endfacet
facet normal -0.0 -0.0 1.0
  outer loop
    vertex 13.399999999999999 25.535898384862247 1.9999999999999998
    vertex 14.105904774487394 16.82962913144534 1.9999999999999998
    vertex 14.364723819589917 25.136296694843725 1.9999999999999998
  endloop
endfacet
facet normal -0.0 -0.0 1.0
  outer loop
    vertex 14.364723819589917 25.136296694843725 1.9999999999999998
    vertex 14.105904774487394 16.82962913144534 1.9999999999999998
    vertex 15.4 17.0 1.9999999999999998
  endloop
endfacet
facet normal -0.0 -0.0 1.0
  outer loop
    vertex 14.364723819589917 25.136296694843725 1.9999999999999998
    vertex 15.4 17.0 1.9999999999999998
    vertex 15.4 25.0 1.9999999999999998
  endloop
endfacet
facet normal -0.0 -0.0 1.0
  outer loop
    vertex 15.4 25.0 1.9999999999999998
    vertex 15.4 17.0 1.9999999999999998
    vertex 16.6940952255126 16.82962913144534 1.9999999999999998
  endloop
endfacet
facet normal -0.0 -0.0 1.0
  outer loop
    vertex 15.4 25.0 1.9999999999999998
    vertex 16.6940952255126 16.82962913144534 1.9999999999999998
    vertex 16.43527618041008 25.136296694843725 1.9999999999999998
  endloop
endfacet
facet normal -0.0 -0.0 1.0
  outer loop
    vertex 16.43527618041008 25.136296694843725 1.9999999999999998
    vertex 16.6940952255126 16.82962913144534 1.9999999999999998
    vertex 17.4 25.535898384862247 1.9999999999999998
  endloop
endfacet
facet normal -0.0 -0.0 1.0
  outer loop
    vertex 17.4 25.535898384862247 1.9999999999999998
    vertex 16.6940952255126 16.82962913144534 1.9999999999999998
    vertex 17.9 16.330127018922195 1.9999999999999998
  endloop
endfacet
facet normal -0.0 -0.0 1.0
  outer loop
    vertex 17.4 25.535898384862247 1.9999999999999998
    vertex 17.9 16.330127018922195 1.9999999999999998
    vertex 18.228427124746187 26.171572875253805 1.9999999999999998
  endloop
endfacet
facet normal -0.0 -0.0 1.0
  outer loop
    vertex 18.228427124746187 26.171572875253805 1.9999999999999998
    vertex 17.9 16.330127018922195 1.9999999999999998
    vertex 18.935533905932736 15.535533905932738 1.9999999999999998
  endloop
endfacet
facet normal -0.0 -0.0 1.0
  outer loop
    vertex 18.228427124746187 26.171572875253805 1.9999999999999998
    vertex 18.935533905932736 15.535533905932738 1.9999999999999998
    vertex 18.864101615137752 26.999999999999996 1.9999999999999998
  endloop
endfacet
facet normal -0.0 -0.0 1.0
  outer loop
    vertex 18.864101615137752 26.999999999999996 1.9999999999999998
    vertex 18.935533905932736 15.535533905932738 1.9999999999999998
    vertex 19.26370330515627 27.964723819589913 1.9999999999999998
  endloop
endfacet
facet normal -0.0 -0.0 1.0
  outer loop
    vertex 19.26370330515627 27.964723819589913 1.9999999999999998
    vertex 18.935533905932736 15.535533905932738 1.9999999999999998
    vertex 19.73012701892219 14.500000000000002 1.9999999999999998
  endloop
endfacet
facet normal -0.0 -0.0 1.0
  outer loop
    vertex 19.26370330515627 27.964723819589913 1.9999999999999998
    vertex 19.73012701892219 14.500000000000002 1.9999999999999998
    vertex 19.4 28.999999999999996 1.9999999999999998
  endloop
endfacet
facet normal -0.0 -0.0 1.0
  outer loop
    vertex 6.0 6.0 1.9999999999999998
    vertex 10.4 12.0 1.9999999999999998
    vertex 6.0 51.99999999999999 1.9999999999999998
  endloop
endfacet
facet normal -0.0 -0.0 1.0
  outer loop
    vertex 10.4 12.0 1.9999999999999998
    vertex 6.0 6.0 1.9999999999999998
    vertex 10.57037086855466 10.705904774487397 1.9999999999999998
  endloop
endfacet
facet normal -0.0 -0.0 1.0
  outer loop
    vertex 10.57037086855466 10.705904774487397 1.9999999999999998
    vertex 6.0 6.0 1.9999999999999998
    vertex 11.069872981077808 9.500000000000002 1.9999999999999998
  endloop
endfacet
facet normal -0.0 -0.0 1.0
  outer loop
    vertex 11.069872981077808 9.500000000000002 1.9999999999999998
    vertex 6.0 6.0 1.9999999999999998
    vertex 11.864466094067263 8.464466094067264 1.9999999999999998
  endloop
endfacet
facet normal -0.0 -0.0 1.0
  outer loop
    vertex 11.864466094067263 8.464466094067264 1.9999999999999998
    vertex 6.0 6.0 1.9999999999999998
    vertex 12.900000000000002 7.669872981077807 1.9999999999999998
  endloop
endfacet
facet normal -0.0 -0.0 1.0
  outer loop
    vertex 12.900000000000002 7.669872981077807 1.9999999999999998
    vertex 6.0 6.0 1.9999999999999998
    vertex 14.105904774487398 7.17037086855466 1.9999999999999998
  endloop
endfacet
facet normal -0.0 -0.0 1.0
  outer loop
    vertex 14.105904774487398 7.17037086855466 1.9999999999999998
    vertex 6.0 6.0 1.9999999999999998
    vertex 15.4 7.000000000000001 1.9999999999999998
  endloop
endfacet
facet normal -0.0 -0.0 1.0
  outer loop
    vertex 15.4 7.000000000000001 1.9999999999999998
    vertex 6.0 6.0 1.9999999999999998
    vertex 171.0 6.0 1.9999999999999998
  endloop
endfacet
facet normal -0.0 -0.0 1.0
  outer loop
    vertex 15.4 7.000000000000001 1.9999999999999998
    vertex 171.0 6.0 1.9999999999999998
    vertex 16.69409522551261 7.170370868554661 1.9999999999999998
  endloop
endfacet
facet normal -0.0 -0.0 1.0
  outer loop
    vertex 16.69409522551261 7.170370868554661 1.9999999999999998
    vertex 171.0 6.0 1.9999999999999998
    vertex 17.900000000000002 7.669872981077811 1.9999999999999998
  endloop
endfacet
facet normal -0.0 -0.0 1.0
  outer loop
    vertex 17.900000000000002 7.669872981077811 1.9999999999999998
    vertex 171.0 6.0 1.9999999999999998
    vertex 18.935533905932736 8.464466094067266 1.9999999999999998
  endloop
endfacet
facet normal -0.0 -0.0 1.0
  outer loop
    vertex 18.935533905932736 8.464466094067266 1.9999999999999998
    vertex 171.0 6.0 1.9999999999999998
    vertex 19.730127018922197 9.500000000000005 1.9999999999999998
  endloop
endfacet
facet normal -0.0 -0.0 1.0
  outer loop
    vertex 19.730127018922197 9.500000000000005 1.9999999999999998
    vertex 171.0 6.0 1.9999999999999998
    vertex 20.22962913144534 10.705904774487399 1.9999999999999998
  endloop
endfacet
facet normal -0.0 -0.0 1.0
  outer loop
    vertex 20.22962913144534 10.705904774487399 1.9999999999999998
    vertex 171.0 6.0 1.9999999999999998
    vertex 20.4 12.000000000000002 1.9999999999999998
  endloop
endfacet
facet normal -0.0 -0.0 1.0
  outer loop
    vertex 20.4 12.000000000000002 1.9999999999999998
    vertex 171.0 6.0 1.9999999999999998
    vertex 51.99999999999999 12.500000000000002 1.9999999999999998
  endloop
endfacet
facet normal -0.0 -0.0 1.0
  outer loop
    vertex 51.99999999999999 12.500000000000002 1.9999999999999998
    vertex 171.0 6.0 1.9999999999999998
    vertex 128.5 12.500000000000002 1.9999999999999998
  endloop
endfacet
facet normal -0.0 -0.0 1.0
  outer loop
    vertex 128.5 12.500000000000002 1.9999999999999998
    vertex 171.0 6.0 1.9999999999999998
    vertex 128.5 38.99999999999999 1.9999999999999998
  endloop
endfacet
facet normal -0.0 -0.0 1.0
  outer loop
    vertex 6.0 51.99999999999999 1.9999999999999998
    vertex 12.4 51.49999999999999 1.9999999999999998
    vertex 171.0 51.99999999999999 1.9999999999999998
  endloop
endfacet
facet normal -0.0 -0.0 1.0
  outer loop
    vertex 12.4 51.49999999999999 1.9999999999999998
    vertex 6.0 51.99999999999999 1.9999999999999998
    vertex 10.4 12.0 1.9999999999999998
  endloop
endfacet
facet normal -0.0 -0.0 1.0
  outer loop
    vertex 12.4 51.49999999999999 1.9999999999999998
    vertex 10.4 12.0 1.9999999999999998
    vertex 10.57037086855466 13.294095225512603 1.9999999999999998
  endloop
endfacet
facet normal -0.0 -0.0 1.0
  outer loop
    vertex 12.4 51.49999999999999 1.9999999999999998
    vertex 10.57037086855466 13.294095225512603 1.9999999999999998
    vertex 11.400000000000002 28.999999999999996 1.9999999999999998
  endloop
endfacet
facet normal -0.0 -0.0 1.0
  outer loop
    vertex 11.400000000000002 28.999999999999996 1.9999999999999998
    vertex 10.57037086855466 13.294095225512603 1.9999999999999998
    vertex 11.069872981077808 14.499999999999998 1.9999999999999998
  endloop
endfacet
facet normal -0.0 -0.0 1.0
  outer loop
    vertex 12.4 51.49999999999999 1.9999999999999998
    vertex 11.400000000000002 28.999999999999996 1.9999999999999998
    vertex 11.53629669484373 30.035276180410083 1.9999999999999998
  endloop
endfacet
facet normal -0.0 -0.0 1.0
  outer loop
    vertex 12.4 51.49999999999999 1.9999999999999998
    vertex 11.53629669484373 30.035276180410083 1.9999999999999998
    vertex 11.935898384862247 31.0 1.9999999999999998
  endloop
endfacet
facet normal -0.0 -0.0 1.0
  outer loop
    vertex 12.4 51.49999999999999 1.9999999999999998
    vertex 11.935898384862247 31.0 1.9999999999999998
    vertex 12.4 44.0 1.9999999999999998
  endloop
endfacet
facet normal -0.0 -0.0 1.0
  outer loop
    vertex 12.4 51.49999999999999 1.9999999999999998
    vertex 12.4 44.0 1.9999999999999998
    vertex 12.4 45.49999999999999 1.9999999999999998
  endloop
endfacet
facet normal -0.0 -0.0 1.0
  outer loop
    vertex 12.4 51.49999999999999 1.9999999999999998
    vertex 12.4 45.49999999999999 1.9999999999999998
    vertex 12.4 47.0 1.9999999999999998
  endloop
endfacet
facet normal -0.0 -0.0 1.0
  outer loop
    vertex 12.4 51.49999999999999 1.9999999999999998
    vertex 12.4 47.0 1.9999999999999998
    vertex 12.4 48.5 1.9999999999999998
  endloop
endfacet
facet normal -0.0 -0.0 1.0
  outer loop
    vertex 12.4 51.49999999999999 1.9999999999999998
    vertex 12.4 48.5 1.9999999999999998
    vertex 12.4 50.0 1.9999999999999998
  endloop
endfacet
facet normal -0.0 -0.0 1.0
  outer loop
    vertex 171.0 51.99999999999999 1.9999999999999998
    vertex 12.4 51.49999999999999 1.9999999999999998
    vertex 18.4 51.49999999999999 1.9999999999999998
  endloop
endfacet
facet normal -0.0 -0.0 1.0
  outer loop
    vertex 171.0 51.99999999999999 1.9999999999999998
    vertex 18.4 51.49999999999999 1.9999999999999998
    vertex 51.99999999999999 38.99999999999999 1.9999999999999998
  endloop
endfacet
facet normal -0.0 -0.0 1.0
  outer loop
    vertex 51.99999999999999 38.99999999999999 1.9999999999999998
    vertex 18.4 51.49999999999999 1.9999999999999998
    vertex 18.864101615137752 30.999999999999993 1.9999999999999998
  endloop
endfacet
facet normal -0.0 -0.0 1.0
  outer loop
    vertex 51.99999999999999 38.99999999999999 1.9999999999999998
    vertex 18.864101615137752 30.999999999999993 1.9999999999999998
    vertex 19.26370330515627 30.035276180410076 1.9999999999999998
  endloop
endfacet
facet normal -0.0 -0.0 1.0
  outer loop
    vertex 51.99999999999999 38.99999999999999 1.9999999999999998
    vertex 19.26370330515627 30.035276180410076 1.9999999999999998
    vertex 19.4 28.999999999999996 1.9999999999999998
  endloop
endfacet
facet normal -0.0 -0.0 1.0
  outer loop
    vertex 51.99999999999999 38.99999999999999 1.9999999999999998
    vertex 19.4 28.999999999999996 1.9999999999999998
    vertex 19.73012701892219 14.500000000000002 1.9999999999999998
  endloop
endfacet
facet normal -0.0 -0.0 1.0
  outer loop
    vertex 51.99999999999999 38.99999999999999 1.9999999999999998
    vertex 19.73012701892219 14.500000000000002 1.9999999999999998
    vertex 20.22962913144534 13.294095225512608 1.9999999999999998
  endloop
endfacet
facet normal -0.0 -0.0 1.0
  outer loop
    vertex 51.99999999999999 38.99999999999999 1.9999999999999998
    vertex 20.22962913144534 13.294095225512608 1.9999999999999998
    vertex 20.4 12.000000000000002 1.9999999999999998
  endloop
endfacet
facet normal -0.0 -0.0 1.0
  outer loop
    vertex 51.99999999999999 38.99999999999999 1.9999999999999998
    vertex 20.4 12.000000000000002 1.9999999999999998
    vertex 51.99999999999999 12.500000000000002 1.9999999999999998
  endloop
endfacet
facet normal -0.0 -0.0 1.0
  outer loop
    vertex 171.0 51.99999999999999 1.9999999999999998
    vertex 51.99999999999999 38.99999999999999 1.9999999999999998
    vertex 128.5 38.99999999999999 1.9999999999999998
  endloop
endfacet
facet normal -0.0 -0.0 1.0
  outer loop
    vertex 171.0 51.99999999999999 1.9999999999999998
    vertex 128.5 38.99999999999999 1.9999999999999998
    vertex 171.0 6.0 1.9999999999999998
  endloop
endfacet
facet normal -0.0 -0.0 1.0
  outer loop
    vertex 18.4 48.5 1.9999999999999998
    vertex 12.4 50.0 1.9999999999999998
    vertex 12.4 48.5 1.9999999999999998
  endloop
endfacet
facet normal -0.0 -0.0 1.0
  outer loop
    vertex 12.4 50.0 1.9999999999999998
    vertex 18.4 48.5 1.9999999999999998
    vertex 18.4 50.0 1.9999999999999998
  endloop
endfacet
facet normal -0.0 -0.0 1.0
  outer loop
    vertex 18.4 45.49999999999999 1.9999999999999998
    vertex 12.4 47.0 1.9999999999999998
    vertex 12.4 45.49999999999999 1.9999999999999998
  endloop
endfacet
facet normal -0.0 -0.0 1.0
  outer loop
    vertex 12.4 47.0 1.9999999999999998
    vertex 18.4 45.49999999999999 1.9999999999999998
    vertex 18.4 47.0 1.9999999999999998
  endloop
endfacet
facet normal -0.0 -1.0 -0.0
  outer loop
    vertex 128.5 38.99999999999999 1.9999999999999998
    vertex 51.99999999999999 38.99999999999999 0.0
    vertex 128.5 38.99999999999999 0.0
  endloop
endfacet
facet normal -0.0 -1.0 -0.0
  outer loop
    vertex 51.99999999999999 38.99999999999999 0.0
    vertex 128.5 38.99999999999999 1.9999999999999998
    vertex 51.99999999999999 38.99999999999999 1.9999999999999998
  endloop
endfacet
facet normal 1.0 0.0 0.0
  outer loop
    vertex 51.99999999999999 38.99999999999999 0.0
    vertex 51.99999999999999 12.500000000000002 1.9999999999999998
    vertex 51.99999999999999 12.500000000000002 0.0
  endloop
endfacet
facet normal 1.0 0.0 0.0
  outer loop
    vertex 51.99999999999999 12.500000000000002 1.9999999999999998
    vertex 51.99999999999999 38.99999999999999 0.0
    vertex 51.99999999999999 38.99999999999999 1.9999999999999998
  endloop
endfacet
facet normal 0.0 1.0 0.0
  outer loop
    vertex 51.99999999999999 12.500000000000002 1.9999999999999998
    vertex 128.5 12.500000000000002 0.0
    vertex 51.99999999999999 12.500000000000002 0.0
  endloop
endfacet
facet normal 0.0 1.0 0.0
  outer loop
    vertex 128.5 12.500000000000002 0.0
    vertex 51.99999999999999 12.500000000000002 1.9999999999999998
    vertex 128.5 12.500000000000002 1.9999999999999998
  endloop
endfacet
facet normal -1.0 0.0 0.0
  outer loop
    vertex 128.5 38.99999999999999 1.9999999999999998
    vertex 128.5 12.500000000000002 0.0
    vertex 128.5 12.500000000000002 1.9999999999999998
  endloop
endfacet
facet normal -1.0 0.0 0.0
  outer loop
    vertex 128.5 12.500000000000002 0.0
    vertex 128.5 38.99999999999999 1.9999999999999998
    vertex 128.5 38.99999999999999 0.0
  endloop
endfacet
facet normal 0.1305261922200518 0.9914448613738104 0.0
  outer loop
    vertex 14.364723819589917 25.136296694843725 1.9999999999999998
    vertex 15.4 25.0 0.0
    vertex 14.364723819589917 25.136296694843725 0.0
  endloop
endfacet
facet normal 0.1305261922200518 0.9914448613738104 0.0
  outer loop
    vertex 15.4 25.0 0.0
    vertex 14.364723819589917 25.136296694843725 1.9999999999999998
    vertex 15.4 25.0 1.9999999999999998
  endloop
endfacet
facet normal -0.13052619222005216 0.9914448613738104 0.0
  outer loop
    vertex 15.4 25.0 1.9999999999999998
    vertex 16.43527618041008 25.136296694843725 0.0
    vertex 15.4 25.0 0.0
  endloop
endfacet
facet normal -0.13052619222005216 0.9914448613738104 0.0
  outer loop
    vertex 16.43527618041008 25.136296694843725 0.0
    vertex 15.4 25.0 1.9999999999999998
    vertex 16.43527618041008 25.136296694843725 1.9999999999999998
  endloop
endfacet
facet normal -0.3826834323650904 0.9238795325112866 0.0
  outer loop
    vertex 16.43527618041008 25.136296694843725 1.9999999999999998
    vertex 17.4 25.535898384862247 0.0
    vertex 16.43527618041008 25.136296694843725 0.0
  endloop
endfacet
facet normal -0.3826834323650904 0.9238795325112866 0.0
  outer loop
    vertex 17.4 25.535898384862247 0.0
    vertex 16.43527618041008 25.136296694843725 1.9999999999999998
    vertex 17.4 25.535898384862247 1.9999999999999998
  endloop
endfacet
facet normal -0.6087614290087192 0.7933533402912363 0.0
  outer loop
    vertex 17.4 25.535898384862247 1.9999999999999998
    vertex 18.228427124746187 26.171572875253805 0.0
    vertex 17.4 25.535898384862247 0.0
  endloop
endfacet
facet normal -0.6087614290087192 0.7933533402912363 0.0
  outer loop
    vertex 18.228427124746187 26.171572875253805 0.0
    vertex 17.4 25.535898384862247 1.9999999999999998
    vertex 18.228427124746187 26.171572875253805 1.9999999999999998
  endloop
endfacet
facet normal -0.7933533402912347 0.6087614290087213 0.0
  outer loop
    vertex 18.864101615137752 26.999999999999996 1.9999999999999998
    vertex 18.228427124746187 26.171572875253805 0.0
    vertex 18.228427124746187 26.171572875253805 1.9999999999999998
  endloop
endfacet
facet normal -0.7933533402912347 0.6087614290087213 0.0
  outer loop
    vertex 18.228427124746187 26.171572875253805 0.0
    vertex 18.864101615137752 26.999999999999996 1.9999999999999998
    vertex 18.864101615137752 26.999999999999996 0.0
  endloop
endfacet
facet normal -0.9238795325112863 0.3826834323650914 0.0
  outer loop
    vertex 19.26370330515627 27.964723819589913 1.9999999999999998
    vertex 18.864101615137752 26.999999999999996 0.0
    vertex 18.864101615137752 26.999999999999996 1.9999999999999998
  endloop
endfacet
facet normal -0.9238795325112863 0.3826834323650914 0.0
  outer loop
    vertex 18.864101615137752 26.999999999999996 0.0
    vertex 19.26370330515627 27.964723819589913 1.9999999999999998
    vertex 19.26370330515627 27.964723819589913 0.0
  endloop
endfacet
facet normal -0.9914448613738105 0.13052619222005143 0.0
  outer loop
    vertex 19.4 28.999999999999996 1.9999999999999998
    vertex 19.26370330515627 27.964723819589913 0.0
    vertex 19.26370330515627 27.964723819589913 1.9999999999999998
  endloop
endfacet
facet normal -0.9914448613738105 0.13052619222005143 0.0
  outer loop
    vertex 19.26370330515627 27.964723819589913 0.0
    vertex 19.4 28.999999999999996 1.9999999999999998
    vertex 19.4 28.999999999999996 0.0
  endloop
endfacet
facet normal -0.9914448613738104 -0.13052619222005216 -0.0
  outer loop
    vertex 19.26370330515627 30.035276180410076 1.9999999999999998
    vertex 19.4 28.999999999999996 0.0
    vertex 19.4 28.999999999999996 1.9999999999999998
  endloop
endfacet
facet normal -0.9914448613738104 -0.13052619222005216 -0.0
  outer loop
    vertex 19.4 28.999999999999996 0.0
    vertex 19.26370330515627 30.035276180410076 1.9999999999999998
    vertex 19.26370330515627 30.035276180410076 0.0
  endloop
endfacet
facet normal -0.9238795325112871 -0.38268343236508895 -0.0
  outer loop
    vertex 18.864101615137752 30.999999999999993 1.9999999999999998
    vertex 19.26370330515627 30.035276180410076 0.0
    vertex 19.26370330515627 30.035276180410076 1.9999999999999998
  endloop
endfacet
facet normal -0.9238795325112871 -0.38268343236508895 -0.0
  outer loop
    vertex 19.26370330515627 30.035276180410076 0.0
    vertex 18.864101615137752 30.999999999999993 1.9999999999999998
    vertex 18.864101615137752 30.999999999999993 0.0
  endloop
endfacet
facet normal -0.7933533402912367 -0.6087614290087188 -0.0
  outer loop
    vertex 18.22842712474619 31.828427124746188 1.9999999999999998
    vertex 18.864101615137752 30.999999999999993 0.0
    vertex 18.864101615137752 30.999999999999993 1.9999999999999998
  endloop
endfacet
facet normal -0.7933533402912367 -0.6087614290087188 -0.0
  outer loop
    vertex 18.864101615137752 30.999999999999993 0.0
    vertex 18.22842712474619 31.828427124746188 1.9999999999999998
    vertex 18.22842712474619 31.828427124746188 0.0
  endloop
endfacet
facet normal -0.6087614290087192 -0.7933533402912363 -0.0
  outer loop
    vertex 18.22842712474619 31.828427124746188 1.9999999999999998
    vertex 17.400000000000002 32.46410161513775 0.0
    vertex 18.22842712474619 31.828427124746188 0.0
  endloop
endfacet
facet normal -0.6087614290087192 -0.7933533402912363 -0.0
  outer loop
    vertex 17.400000000000002 32.46410161513775 0.0
    vertex 18.22842712474619 31.828427124746188 1.9999999999999998
    vertex 17.400000000000002 32.46410161513775 1.9999999999999998
  endloop
endfacet
facet normal -0.3826834323650914 -0.9238795325112863 -0.0
  outer loop
    vertex 17.400000000000002 32.46410161513775 1.9999999999999998
    vertex 16.435276180410085 32.86370330515627 0.0
    vertex 17.400000000000002 32.46410161513775 0.0
  endloop
endfacet
facet normal -0.3826834323650914 -0.9238795325112863 -0.0
  outer loop
    vertex 16.435276180410085 32.86370330515627 0.0
    vertex 17.400000000000002 32.46410161513775 1.9999999999999998
    vertex 16.435276180410085 32.86370330515627 1.9999999999999998
  endloop
endfacet
facet normal -0.13052619222005143 -0.9914448613738105 -0.0
  outer loop
    vertex 16.435276180410085 32.86370330515627 1.9999999999999998
    vertex 15.4 32.99999999999999 0.0
    vertex 16.435276180410085 32.86370330515627 0.0
  endloop
endfacet
facet normal -0.13052619222005143 -0.9914448613738105 -0.0
  outer loop
    vertex 15.4 32.99999999999999 0.0
    vertex 16.435276180410085 32.86370330515627 1.9999999999999998
    vertex 15.4 32.99999999999999 1.9999999999999998
  endloop
endfacet
facet normal 0.1305261922200518 -0.9914448613738104 0.0
  outer loop
    vertex 15.4 32.99999999999999 1.9999999999999998
    vertex 14.364723819589917 32.86370330515627 0.0
    vertex 15.4 32.99999999999999 0.0
  endloop
endfacet
facet normal 0.1305261922200518 -0.9914448613738104 0.0
  outer loop
    vertex 14.364723819589917 32.86370330515627 0.0
    vertex 15.4 32.99999999999999 1.9999999999999998
    vertex 14.364723819589917 32.86370330515627 1.9999999999999998
  endloop
endfacet
facet normal 0.3826834323650914 -0.9238795325112863 0.0
  outer loop
    vertex 14.364723819589917 32.86370330515627 1.9999999999999998
    vertex 13.4 32.46410161513775 0.0
    vertex 14.364723819589917 32.86370330515627 0.0
  endloop
endfacet
facet normal 0.3826834323650914 -0.9238795325112863 0.0
  outer loop
    vertex 13.4 32.46410161513775 0.0
    vertex 14.364723819589917 32.86370330515627 1.9999999999999998
    vertex 13.4 32.46410161513775 1.9999999999999998
  endloop
endfacet
facet normal 0.6087614290087179 -0.7933533402912372 0.0
  outer loop
    vertex 13.4 32.46410161513775 1.9999999999999998
    vertex 12.57157287525381 31.828427124746188 0.0
    vertex 13.4 32.46410161513775 0.0
  endloop
endfacet
facet normal 0.6087614290087179 -0.7933533402912372 0.0
  outer loop
    vertex 12.57157287525381 31.828427124746188 0.0
    vertex 13.4 32.46410161513775 1.9999999999999998
    vertex 12.57157287525381 31.828427124746188 1.9999999999999998
  endloop
endfacet
facet normal 0.7933533402912347 -0.6087614290087213 0.0
  outer loop
    vertex 12.57157287525381 31.828427124746188 0.0
    vertex 11.935898384862247 31.0 1.9999999999999998
    vertex 11.935898384862247 31.0 0.0
  endloop
endfacet
facet normal 0.7933533402912347 -0.6087614290087213 0.0
  outer loop
    vertex 11.935898384862247 31.0 1.9999999999999998
    vertex 12.57157287525381 31.828427124746188 0.0
    vertex 12.57157287525381 31.828427124746188 1.9999999999999998
  endloop
endfacet
facet normal 0.9238795325112871 -0.38268343236508895 0.0
  outer loop
    vertex 11.935898384862247 31.0 0.0
    vertex 11.53629669484373 30.035276180410083 1.9999999999999998
    vertex 11.53629669484373 30.035276180410083 0.0
  endloop
endfacet
facet normal 0.9238795325112871 -0.38268343236508895 0.0
  outer loop
    vertex 11.53629669484373 30.035276180410083 1.9999999999999998
    vertex 11.935898384862247 31.0 0.0
    vertex 11.935898384862247 31.0 1.9999999999999998
  endloop
endfacet
facet normal 0.9914448613738105 -0.13052619222005143 0.0
  outer loop
    vertex 11.53629669484373 30.035276180410083 0.0
    vertex 11.400000000000002 28.999999999999996 1.9999999999999998
    vertex 11.400000000000002 28.999999999999996 0.0
  endloop
endfacet
facet normal 0.9914448613738105 -0.13052619222005143 0.0
  outer loop
    vertex 11.400000000000002 28.999999999999996 1.9999999999999998
    vertex 11.53629669484373 30.035276180410083 0.0
    vertex 11.53629669484373 30.035276180410083 1.9999999999999998
  endloop
endfacet
facet normal 0.9914448613738104 0.13052619222005216 0.0
  outer loop
    vertex 11.400000000000002 28.999999999999996 0.0
    vertex 11.53629669484373 27.964723819589917 1.9999999999999998
    vertex 11.53629669484373 27.964723819589917 0.0
  endloop
endfacet
facet normal 0.9914448613738104 0.13052619222005216 0.0
  outer loop
    vertex 11.53629669484373 27.964723819589917 1.9999999999999998
    vertex 11.400000000000002 28.999999999999996 0.0
    vertex 11.400000000000002 28.999999999999996 1.9999999999999998
  endloop
endfacet
facet normal 0.9238795325112871 0.38268343236508895 0.0
  outer loop
    vertex 11.53629669484373 27.964723819589917 0.0
    vertex 11.935898384862247 27.0 1.9999999999999998
    vertex 11.935898384862247 27.0 0.0
  endloop
endfacet
facet normal 0.9238795325112871 0.38268343236508895 0.0
  outer loop
    vertex 11.935898384862247 27.0 1.9999999999999998
    vertex 11.53629669484373 27.964723819589917 0.0
    vertex 11.53629669484373 27.964723819589917 1.9999999999999998
  endloop
endfacet
facet normal 0.7933533402912367 0.6087614290087188 0.0
  outer loop
    vertex 11.935898384862247 27.0 0.0
    vertex 12.57157287525381 26.171572875253805 1.9999999999999998
    vertex 12.57157287525381 26.171572875253805 0.0
  endloop
endfacet
facet normal 0.7933533402912367 0.6087614290087188 0.0
  outer loop
    vertex 12.57157287525381 26.171572875253805 1.9999999999999998
    vertex 11.935898384862247 27.0 0.0
    vertex 11.935898384862247 27.0 1.9999999999999998
  endloop
endfacet
facet normal 0.6087614290087192 0.7933533402912363 0.0
  outer loop
    vertex 12.57157287525381 26.171572875253805 1.9999999999999998
    vertex 13.399999999999999 25.535898384862247 0.0
    vertex 12.57157287525381 26.171572875253805 0.0
  endloop
endfacet
facet normal 0.6087614290087192 0.7933533402912363 0.0
  outer loop
    vertex 13.399999999999999 25.535898384862247 0.0
    vertex 12.57157287525381 26.171572875253805 1.9999999999999998
    vertex 13.399999999999999 25.535898384862247 1.9999999999999998
  endloop
endfacet
facet normal 0.3826834323650904 0.9238795325112866 0.0
  outer loop
    vertex 13.399999999999999 25.535898384862247 1.9999999999999998
    vertex 14.364723819589917 25.136296694843725 0.0
    vertex 13.399999999999999 25.535898384862247 0.0
  endloop
endfacet
facet normal 0.3826834323650904 0.9238795325112866 0.0
  outer loop
    vertex 14.364723819589917 25.136296694843725 0.0
    vertex 13.399999999999999 25.535898384862247 1.9999999999999998
    vertex 14.364723819589917 25.136296694843725 1.9999999999999998
  endloop
endfacet
facet normal -0.0 -0.0 1.0
  outer loop
    vertex 0.9999999999999999 0.9999999999999999 5.0
    vertex 6.0 6.0 5.0
    vertex 0.9999999999999999 57.0 5.0
  endloop
endfacet
facet normal -0.0 -0.0 1.0
  outer loop
    vertex 6.0 6.0 5.0
    vertex 0.9999999999999999 0.9999999999999999 5.0
    vertex 176.0 0.9999999999999999 5.0
  endloop
endfacet
facet normal -0.0 -0.0 1.0
  outer loop
    vertex 6.0 6.0 5.0
    vertex 176.0 0.9999999999999999 5.0
    vertex 171.0 6.0 5.0
  endloop
endfacet
facet normal -0.0 -0.0 1.0
  outer loop
    vertex 171.0 6.0 5.0
    vertex 176.0 0.9999999999999999 5.0
    vertex 171.0 51.99999999999999 5.0
  endloop
endfacet
facet normal -0.0 -0.0 1.0
  outer loop
    vertex 0.9999999999999999 57.0 5.0
    vertex 6.0 51.99999999999999 5.0
    vertex 176.0 57.0 5.0
  endloop
endfacet
facet normal -0.0 -0.0 1.0
  outer loop
    vertex 6.0 51.99999999999999 5.0
    vertex 0.9999999999999999 57.0 5.0
    vertex 6.0 6.0 5.0
  endloop
endfacet
facet normal -0.0 -0.0 1.0
  outer loop
    vertex 176.0 57.0 5.0
    vertex 6.0 51.99999999999999 5.0
    vertex 171.0 51.99999999999999 5.0
  endloop
endfacet
facet normal -0.0 -0.0 1.0
  outer loop
    vertex 176.0 57.0 5.0
    vertex 171.0 51.99999999999999 5.0
    vertex 176.0 0.9999999999999999 5.0
  endloop
endfacet
facet normal 1.0 0.0 0.0
  outer loop
    vertex 176.0 57.0 0.0
    vertex 176.0 0.9999999999999999 5.0
    vertex 176.0 0.9999999999999999 0.0
  endloop
endfacet
facet normal 1.0 0.0 0.0
  outer loop
    vertex 176.0 0.9999999999999999 5.0
    vertex 176.0 57.0 0.0
    vertex 176.0 57.0 5.0
  endloop
endfacet
facet normal -0.0 -1.0 -0.0
  outer loop
    vertex 176.0 0.9999999999999999 5.0
    vertex 0.9999999999999999 0.9999999999999999 0.0
    vertex 176.0 0.9999999999999999 0.0
  endloop
endfacet
facet normal -0.0 -1.0 -0.0
  outer loop
    vertex 0.9999999999999999 0.9999999999999999 0.0
    vertex 176.0 0.9999999999999999 5.0
    vertex 0.9999999999999999 0.9999999999999999 5.0
  endloop
endfacet
facet normal -1.0 0.0 0.0
  outer loop
    vertex 0.9999999999999999 57.0 5.0
    vertex 0.9999999999999999 0.9999999999999999 0.0
    vertex 0.9999999999999999 0.9999999999999999 5.0
  endloop
endfacet
facet normal -1.0 0.0 0.0
  outer loop
    vertex 0.9999999999999999 0.9999999999999999 0.0
    vertex 0.9999999999999999 57.0 5.0
    vertex 0.9999999999999999 57.0 0.0
  endloop
endfacet
facet normal -0.0 1.0 0.0
  outer loop
    vertex 0.9999999999999999 57.0 5.0
    vertex 176.0 57.0 0.0
    vertex 0.9999999999999999 57.0 0.0
  endloop
endfacet
facet normal -0.0 1.0 0.0
  outer loop
    vertex 176.0 57.0 0.0
    vertex 0.9999999999999999 57.0 5.0
    vertex 176.0 57.0 5.0
  endloop
endfacet
facet normal 0.0 -1.0 0.0
  outer loop
    vertex 171.0 51.99999999999999 5.0
    vertex 6.0 51.99999999999999 1.9999999999999998
    vertex 171.0 51.99999999999999 1.9999999999999998
  endloop
endfacet
facet normal 0.0 -1.0 0.0
  outer loop
    vertex 6.0 51.99999999999999 1.9999999999999998
    vertex 171.0 51.99999999999999 5.0
    vertex 6.0 51.99999999999999 5.0
  endloop
endfacet
facet normal -1.0 0.0 0.0
  outer loop
    vertex 171.0 51.99999999999999 5.0
    vertex 171.0 6.0 1.9999999999999998
    vertex 171.0 6.0 5.0
  endloop
endfacet
facet normal -1.0 0.0 0.0
  outer loop
    vertex 171.0 6.0 1.9999999999999998
    vertex 171.0 51.99999999999999 5.0
    vertex 171.0 51.99999999999999 1.9999999999999998
  endloop
endfacet
facet normal 0.0 -1.0 -0.0
  outer loop
    vertex 18.4 45.49999999999999 1.9999999999999998
    vertex 12.4 45.49999999999999 0.0
    vertex 18.4 45.49999999999999 0.0
  endloop
endfacet
facet normal 0.0 -1.0 -0.0
  outer loop
    vertex 12.4 45.49999999999999 0.0
    vertex 18.4 45.49999999999999 1.9999999999999998
    vertex 12.4 45.49999999999999 1.9999999999999998
  endloop
endfacet
facet normal -1.0 -0.0 -0.0
  outer loop
    vertex 18.4 45.49999999999999 1.9999999999999998
    vertex 18.4 44.0 0.0
    vertex 18.4 44.0 1.9999999999999998
  endloop
endfacet
facet normal -1.0 -0.0 -0.0
  outer loop
    vertex 18.4 44.0 0.0
    vertex 18.4 45.49999999999999 1.9999999999999998
    vertex 18.4 45.49999999999999 0.0
  endloop
endfacet
facet normal 0.0 1.0 0.0
  outer loop
    vertex 12.4 44.0 1.9999999999999998
    vertex 18.4 44.0 0.0
    vertex 12.4 44.0 0.0
  endloop
endfacet
facet normal 0.0 1.0 0.0
  outer loop
    vertex 18.4 44.0 0.0
    vertex 12.4 44.0 1.9999999999999998
    vertex 18.4 44.0 1.9999999999999998
  endloop
endfacet
facet normal 1.0 0.0 0.0
  outer loop
    vertex 12.4 45.49999999999999 0.0
    vertex 12.4 44.0 1.9999999999999998
    vertex 12.4 44.0 0.0
  endloop
endfacet
facet normal 1.0 0.0 0.0
  outer loop
    vertex 12.4 44.0 1.9999999999999998
    vertex 12.4 45.49999999999999 0.0
    vertex 12.4 45.49999999999999 1.9999999999999998
  endloop
endfacet
facet normal 0.0 1.0 0.0
  outer loop
    vertex 12.4 50.0 1.9999999999999998
    vertex 18.4 50.0 0.0
    vertex 12.4 50.0 0.0
  endloop
endfacet
facet normal 0.0 1.0 0.0
  outer loop
    vertex 18.4 50.0 0.0
    vertex 12.4 50.0 1.9999999999999998
    vertex 18.4 50.0 1.9999999999999998
  endloop
endfacet
facet normal 1.0 0.0 0.0
  outer loop
    vertex 12.4 51.49999999999999 0.0
    vertex 12.4 50.0 1.9999999999999998
    vertex 12.4 50.0 0.0
  endloop
endfacet
facet normal 1.0 0.0 0.0
  outer loop
    vertex 12.4 50.0 1.9999999999999998
    vertex 12.4 51.49999999999999 0.0
    vertex 12.4 51.49999999999999 1.9999999999999998
  endloop
endfacet
facet normal 0.0 -1.0 -0.0
  outer loop
    vertex 18.4 51.49999999999999 1.9999999999999998
    vertex 12.4 51.49999999999999 0.0
    vertex 18.4 51.49999999999999 0.0
  endloop
endfacet
facet normal 0.0 -1.0 -0.0
  outer loop
    vertex 12.4 51.49999999999999 0.0
    vertex 18.4 51.49999999999999 1.9999999999999998
    vertex 12.4 51.49999999999999 1.9999999999999998
  endloop
endfacet
facet normal -1.0 -0.0 -0.0
  outer loop
    vertex 18.4 51.49999999999999 1.9999999999999998
    vertex 18.4 50.0 0.0
    vertex 18.4 50.0 1.9999999999999998
  endloop
endfacet
facet normal -1.0 -0.0 -0.0
  outer loop
    vertex 18.4 50.0 0.0
    vertex 18.4 51.49999999999999 1.9999999999999998
    vertex 18.4 51.49999999999999 0.0
  endloop
endfacet
facet normal -1.0 -0.0 -0.0
  outer loop
    vertex 18.4 48.5 1.9999999999999998
    vertex 18.4 47.0 0.0
    vertex 18.4 47.0 1.9999999999999998
  endloop
endfacet
facet normal -1.0 -0.0 -0.0
  outer loop
    vertex 18.4 47.0 0.0
    vertex 18.4 48.5 1.9999999999999998
    vertex 18.4 48.5 0.0
  endloop
endfacet
facet normal 0.0 1.0 0.0
  outer loop
    vertex 12.4 47.0 1.9999999999999998
    vertex 18.4 47.0 0.0
    vertex 12.4 47.0 0.0
  endloop
endfacet
facet normal 0.0 1.0 0.0
  outer loop
    vertex 18.4 47.0 0.0
    vertex 12.4 47.0 1.9999999999999998
    vertex 18.4 47.0 1.9999999999999998
  endloop
endfacet
facet normal 1.0 0.0 0.0
  outer loop
    vertex 12.4 48.5 0.0
    vertex 12.4 47.0 1.9999999999999998
    vertex 12.4 47.0 0.0
  endloop
endfacet
facet normal 1.0 0.0 0.0
  outer loop
    vertex 12.4 47.0 1.9999999999999998
    vertex 12.4 48.5 0.0
    vertex 12.4 48.5 1.9999999999999998
  endloop
endfacet
facet normal 0.0 -1.0 -0.0
  outer loop
    vertex 18.4 48.5 1.9999999999999998
    vertex 12.4 48.5 0.0
    vertex 18.4 48.5 0.0
  endloop
endfacet
facet normal 0.0 -1.0 -0.0
  outer loop
    vertex 12.4 48.5 0.0
    vertex 18.4 48.5 1.9999999999999998
    vertex 12.4 48.5 1.9999999999999998
  endloop
endfacet
facet normal -0.13052619222005188 -0.9914448613738104 -0.0
  outer loop
    vertex 16.6940952255126 16.82962913144534 1.9999999999999998
    vertex 15.4 17.0 0.0
    vertex 16.6940952255126 16.82962913144534 0.0
  endloop
endfacet
facet normal -0.13052619222005188 -0.9914448613738104 -0.0
  outer loop
    vertex 15.4 17.0 0.0
    vertex 16.6940952255126 16.82962913144534 1.9999999999999998
    vertex 15.4 17.0 1.9999999999999998
  endloop
endfacet
facet normal 0.13052619222005157 -0.9914448613738104 -0.0
  outer loop
    vertex 15.4 17.0 1.9999999999999998
    vertex 14.105904774487394 16.82962913144534 0.0
    vertex 15.4 17.0 0.0
  endloop
endfacet
facet normal 0.13052619222005157 -0.9914448613738104 -0.0
  outer loop
    vertex 14.105904774487394 16.82962913144534 0.0
    vertex 15.4 17.0 1.9999999999999998
    vertex 14.105904774487394 16.82962913144534 1.9999999999999998
  endloop
endfacet
facet normal 0.3826834323650914 -0.9238795325112863 -0.0
  outer loop
    vertex 14.105904774487394 16.82962913144534 1.9999999999999998
    vertex 12.899999999999999 16.33012701892219 0.0
    vertex 14.105904774487394 16.82962913144534 0.0
  endloop
endfacet
facet normal 0.3826834323650914 -0.9238795325112863 -0.0
  outer loop
    vertex 12.899999999999999 16.33012701892219 0.0
    vertex 14.105904774487394 16.82962913144534 1.9999999999999998
    vertex 12.899999999999999 16.33012701892219 1.9999999999999998
  endloop
endfacet
facet normal 0.6087614290087207 -0.7933533402912354 -0.0
  outer loop
    vertex 12.899999999999999 16.33012701892219 1.9999999999999998
    vertex 11.864466094067263 15.535533905932736 0.0
    vertex 12.899999999999999 16.33012701892219 0.0
  endloop
endfacet
facet normal 0.6087614290087207 -0.7933533402912354 -0.0
  outer loop
    vertex 11.864466094067263 15.535533905932736 0.0
    vertex 12.899999999999999 16.33012701892219 1.9999999999999998
    vertex 11.864466094067263 15.535533905932736 1.9999999999999998
  endloop
endfacet
facet normal 0.7933533402912354 -0.6087614290087207 -0.0
  outer loop
    vertex 11.864466094067263 15.535533905932736 0.0
    vertex 11.069872981077808 14.499999999999998 1.9999999999999998
    vertex 11.069872981077808 14.499999999999998 0.0
  endloop
endfacet
facet normal 0.7933533402912354 -0.6087614290087207 -0.0
  outer loop
    vertex 11.069872981077808 14.499999999999998 1.9999999999999998
    vertex 11.864466094067263 15.535533905932736 0.0
    vertex 11.864466094067263 15.535533905932736 1.9999999999999998
  endloop
endfacet
facet normal 0.923879532511287 -0.3826834323650895 -0.0
  outer loop
    vertex 11.069872981077808 14.499999999999998 0.0
    vertex 10.57037086855466 13.294095225512603 1.9999999999999998
    vertex 10.57037086855466 13.294095225512603 0.0
  endloop
endfacet
facet normal 0.923879532511287 -0.3826834323650895 -0.0
  outer loop
    vertex 10.57037086855466 13.294095225512603 1.9999999999999998
    vertex 11.069872981077808 14.499999999999998 0.0
    vertex 11.069872981077808 14.499999999999998 1.9999999999999998
  endloop
endfacet
facet normal 0.9914448613738104 -0.13052619222005188 -0.0
  outer loop
    vertex 10.57037086855466 13.294095225512603 0.0
    vertex 10.4 12.0 1.9999999999999998
    vertex 10.4 12.0 0.0
  endloop
endfacet
facet normal 0.9914448613738104 -0.13052619222005188 -0.0
  outer loop
    vertex 10.4 12.0 1.9999999999999998
    vertex 10.57037086855466 13.294095225512603 0.0
    vertex 10.57037086855466 13.294095225512603 1.9999999999999998
  endloop
endfacet
facet normal 0.9914448613738104 0.13052619222005174 0.0
  outer loop
    vertex 10.4 12.0 0.0
    vertex 10.57037086855466 10.705904774487397 1.9999999999999998
    vertex 10.57037086855466 10.705904774487397 0.0
  endloop
endfacet
facet normal 0.9914448613738104 0.13052619222005174 0.0
  outer loop
    vertex 10.57037086855466 10.705904774487397 1.9999999999999998
    vertex 10.4 12.0 0.0
    vertex 10.4 12.0 1.9999999999999998
  endloop
endfacet
facet normal 0.923879532511287 0.3826834323650895 0.0
  outer loop
    vertex 10.57037086855466 10.705904774487397 0.0
    vertex 11.069872981077808 9.500000000000002 1.9999999999999998
    vertex 11.069872981077808 9.500000000000002 0.0
  endloop
endfacet
facet normal 0.923879532511287 0.3826834323650895 0.0
  outer loop
    vertex 11.069872981077808 9.500000000000002 1.9999999999999998
    vertex 10.57037086855466 10.705904774487397 0.0
    vertex 10.57037086855466 10.705904774487397 1.9999999999999998
  endloop
endfacet
facet normal 0.7933533402912347 0.6087614290087213 0.0
  outer loop
    vertex 11.069872981077808 9.500000000000002 0.0
    vertex 11.864466094067263 8.464466094067264 1.9999999999999998
    vertex 11.864466094067263 8.464466094067264 0.0
  endloop
endfacet
facet normal 0.7933533402912347 0.6087614290087213 0.0
  outer loop
    vertex 11.864466094067263 8.464466094067264 1.9999999999999998
    vertex 11.069872981077808 9.500000000000002 0.0
    vertex 11.069872981077808 9.500000000000002 1.9999999999999998
  endloop
endfacet
facet normal 0.6087614290087208 0.793353340291235 0.0
  outer loop
    vertex 11.864466094067263 8.464466094067264 1.9999999999999998
    vertex 12.900000000000002 7.669872981077807 0.0
    vertex 11.864466094067263 8.464466094067264 0.0
  endloop
endfacet
facet normal 0.6087614290087208 0.793353340291235 0.0
  outer loop
    vertex 12.900000000000002 7.669872981077807 0.0
    vertex 11.864466094067263 8.464466094067264 1.9999999999999998
    vertex 12.900000000000002 7.669872981077807 1.9999999999999998
  endloop
endfacet
facet normal 0.3826834323650895 0.923879532511287 0.0
  outer loop
    vertex 12.900000000000002 7.669872981077807 1.9999999999999998
    vertex 14.105904774487398 7.17037086855466 0.0
    vertex 12.900000000000002 7.669872981077807 0.0
  endloop
endfacet
facet normal 0.3826834323650895 0.923879532511287 0.0
  outer loop
    vertex 14.105904774487398 7.17037086855466 0.0
    vertex 12.900000000000002 7.669872981077807 1.9999999999999998
    vertex 14.105904774487398 7.17037086855466 1.9999999999999998
  endloop
endfacet
facet normal 0.13052619222005188 0.9914448613738104 0.0
  outer loop
    vertex 14.105904774487398 7.17037086855466 1.9999999999999998
    vertex 15.4 7.000000000000001 0.0
    vertex 14.105904774487398 7.17037086855466 0.0
  endloop
endfacet
facet normal 0.13052619222005188 0.9914448613738104 0.0
  outer loop
    vertex 15.4 7.000000000000001 0.0
    vertex 14.105904774487398 7.17037086855466 1.9999999999999998
    vertex 15.4 7.000000000000001 1.9999999999999998
  endloop
endfacet
facet normal -0.13052619222005238 0.9914448613738105 -0.0
  outer loop
    vertex 15.4 7.000000000000001 1.9999999999999998
    vertex 16.69409522551261 7.170370868554661 0.0
    vertex 15.4 7.000000000000001 0.0
  endloop
endfacet
facet normal -0.13052619222005238 0.9914448613738105 -0.0
  outer loop
    vertex 16.69409522551261 7.170370868554661 0.0
    vertex 15.4 7.000000000000001 1.9999999999999998
    vertex 16.69409522551261 7.170370868554661 1.9999999999999998
  endloop
endfacet
facet normal -0.38268343236509117 0.9238795325112863 -0.0
  outer loop
    vertex 16.69409522551261 7.170370868554661 1.9999999999999998
    vertex 17.900000000000002 7.669872981077811 0.0
    vertex 16.69409522551261 7.170370868554661 0.0
  endloop
endfacet
facet normal -0.38268343236509117 0.9238795325112863 -0.0
  outer loop
    vertex 17.900000000000002 7.669872981077811 0.0
    vertex 16.69409522551261 7.170370868554661 1.9999999999999998
    vertex 17.900000000000002 7.669872981077811 1.9999999999999998
  endloop
endfacet
facet normal -0.6087614290087207 0.7933533402912354 -0.0
  outer loop
    vertex 17.900000000000002 7.669872981077811 1.9999999999999998
    vertex 18.935533905932736 8.464466094067266 0.0
    vertex 17.900000000000002 7.669872981077811 0.0
  endloop
endfacet
facet normal -0.6087614290087207 0.7933533402912354 -0.0
  outer loop
    vertex 18.935533905932736 8.464466094067266 0.0
    vertex 17.900000000000002 7.669872981077811 1.9999999999999998
    vertex 18.935533905932736 8.464466094067266 1.9999999999999998
  endloop
endfacet
facet normal -0.7933533402912349 0.608761429008721 -0.0
  outer loop
    vertex 19.730127018922197 9.500000000000005 1.9999999999999998
    vertex 18.935533905932736 8.464466094067266 0.0
    vertex 18.935533905932736 8.464466094067266 1.9999999999999998
  endloop
endfacet
facet normal -0.7933533402912349 0.608761429008721 -0.0
  outer loop
    vertex 18.935533905932736 8.464466094067266 0.0
    vertex 19.730127018922197 9.500000000000005 1.9999999999999998
    vertex 19.730127018922197 9.500000000000005 0.0
  endloop
endfacet
facet normal -0.9238795325112875 0.382683432365088 -0.0
  outer loop
    vertex 20.22962913144534 10.705904774487399 1.9999999999999998
    vertex 19.730127018922197 9.500000000000005 0.0
    vertex 19.730127018922197 9.500000000000005 1.9999999999999998
  endloop
endfacet
facet normal -0.9238795325112875 0.382683432365088 -0.0
  outer loop
    vertex 19.730127018922197 9.500000000000005 0.0
    vertex 20.22962913144534 10.705904774487399 1.9999999999999998
    vertex 20.22962913144534 10.705904774487399 0.0
  endloop
endfacet
facet normal -0.9914448613738104 0.13052619222005188 -0.0
  outer loop
    vertex 20.4 12.000000000000002 1.9999999999999998
    vertex 20.22962913144534 10.705904774487399 0.0
    vertex 20.22962913144534 10.705904774487399 1.9999999999999998
  endloop
endfacet
facet normal -0.9914448613738104 0.13052619222005188 -0.0
  outer loop
    vertex 20.22962913144534 10.705904774487399 0.0
    vertex 20.4 12.000000000000002 1.9999999999999998
    vertex 20.4 12.000000000000002 0.0
  endloop
endfacet
facet normal -0.9914448613738106 -0.13052619222005146 -0.0
  outer loop
    vertex 20.22962913144534 13.294095225512608 1.9999999999999998
    vertex 20.4 12.000000000000002 0.0
    vertex 20.4 12.000000000000002 1.9999999999999998
  endloop
endfacet
facet normal -0.9914448613738106 -0.13052619222005146 -0.0
  outer loop
    vertex 20.4 12.000000000000002 0.0
    vertex 20.22962913144534 13.294095225512608 1.9999999999999998
    vertex 20.22962913144534 13.294095225512608 0.0
  endloop
endfacet
facet normal -0.923879532511286 -0.3826834323650921 -0.0
  outer loop
    vertex 19.73012701892219 14.500000000000002 1.9999999999999998
    vertex 20.22962913144534 13.294095225512608 0.0
    vertex 20.22962913144534 13.294095225512608 1.9999999999999998
  endloop
endfacet
facet normal -0.923879532511286 -0.3826834323650921 -0.0
  outer loop
    vertex 20.22962913144534 13.294095225512608 0.0
    vertex 19.73012701892219 14.500000000000002 1.9999999999999998
    vertex 19.73012701892219 14.500000000000002 0.0
  endloop
endfacet
facet normal -0.7933533402912354 -0.6087614290087207 -0.0
  outer loop
    vertex 18.935533905932736 15.535533905932738 1.9999999999999998
    vertex 19.73012701892219 14.500000000000002 0.0
    vertex 19.73012701892219 14.500000000000002 1.9999999999999998
  endloop
endfacet
facet normal -0.7933533402912354 -0.6087614290087207 -0.0
  outer loop
    vertex 19.73012701892219 14.500000000000002 0.0
    vertex 18.935533905932736 15.535533905932738 1.9999999999999998
    vertex 18.935533905932736 15.535533905932738 0.0
  endloop
endfacet
facet normal -0.6087614290087207 -0.7933533402912354 -0.0
  outer loop
    vertex 18.935533905932736 15.535533905932738 1.9999999999999998
    vertex 17.9 16.330127018922195 0.0
    vertex 18.935533905932736 15.535533905932738 0.0
  endloop
endfacet
facet normal -0.6087614290087207 -0.7933533402912354 -0.0
  outer loop
    vertex 17.9 16.330127018922195 0.0
    vertex 18.935533905932736 15.535533905932738 1.9999999999999998
    vertex 17.9 16.330127018922195 1.9999999999999998
  endloop
endfacet
facet normal -0.3826834323650895 -0.923879532511287 -0.0
  outer loop
    vertex 17.9 16.330127018922195 1.9999999999999998
    vertex 16.6940952255126 16.82962913144534 0.0
    vertex 17.9 16.330127018922195 0.0
  endloop
endfacet
facet normal -0.3826834323650895 -0.923879532511287 -0.0
  outer loop
    vertex 16.6940952255126 16.82962913144534 0.0
    vertex 17.9 16.330127018922195 1.9999999999999998
    vertex 16.6940952255126 16.82962913144534 1.9999999999999998
  endloop
endfacet
facet normal 1.0 0.0 0.0
  outer loop
    vertex 6.0 51.99999999999999 1.9999999999999998
    vertex 6.0 6.0 5.0
    vertex 6.0 6.0 1.9999999999999998
  endloop
endfacet
facet normal 1.0 0.0 0.0
  outer loop
    vertex 6.0 6.0 5.0
    vertex 6.0 51.99999999999999 1.9999999999999998
    vertex 6.0 51.99999999999999 5.0
  endloop
endfacet
facet normal 0.0 1.0 0.0
  outer loop
    vertex 6.0 6.0 5.0
    vertex 171.0 6.0 1.9999999999999998
    vertex 6.0 6.0 1.9999999999999998
  endloop
endfacet
facet normal 0.0 1.0 0.0
  outer loop
    vertex 171.0 6.0 1.9999999999999998
    vertex 6.0 6.0 5.0
    vertex 171.0 6.0 5.0
  endloop
endfacet
endsolid LCD Mount Front
