solid Stop Button
facet normal 0.0 0.0 -1.0
  outer loop
    vertex -1.9999999999999998 9.0 0.9999999999999999
    vertex 0.0 7.0 0.9999999999999999
    vertex -1.9999999999999998 -1.9999999999999998 0.9999999999999999
  endloop
endfacet
facet normal 0.0 0.0 -1.0
  outer loop
    vertex 0.0 7.0 0.9999999999999999
    vertex -1.9999999999999998 9.0 0.9999999999999999
    vertex 9.0 9.0 0.9999999999999999
  endloop
endfacet
facet normal 0.0 0.0 -1.0
  outer loop
    vertex 0.0 7.0 0.9999999999999999
    vertex 9.0 9.0 0.9999999999999999
    vertex 7.0 7.0 0.9999999999999999
  endloop
endfacet
facet normal 0.0 0.0 -1.0
  outer loop
    vertex 7.0 7.0 0.9999999999999999
    vertex 9.0 9.0 0.9999999999999999
    vertex 7.0 0.0 0.9999999999999999
  endloop
endfacet
facet normal 0.0 0.0 -1.0
  outer loop
    vertex -1.9999999999999998 -1.9999999999999998 0.9999999999999999
    vertex 0.0 0.0 0.9999999999999999
    vertex 9.0 -1.9999999999999998 0.9999999999999999
  endloop
endfacet
facet normal 0.0 0.0 -1.0
  outer loop
    vertex 0.0 0.0 0.9999999999999999
    vertex -1.9999999999999998 -1.9999999999999998 0.9999999999999999
    vertex 0.0 7.0 0.9999999999999999
  endloop
endfacet
facet normal 0.0 0.0 -1.0
  outer loop
    vertex 9.0 -1.9999999999999998 0.9999999999999999
    vertex 0.0 0.0 0.9999999999999999
    vertex 7.0 0.0 0.9999999999999999
  endloop
endfacet
facet normal 0.0 0.0 -1.0
  outer loop
    vertex 9.0 -1.9999999999999998 0.9999999999999999
    vertex 7.0 0.0 0.9999999999999999
    vertex 9.0 9.0 0.9999999999999999
  endloop
endfacet
facet normal -0.0 1.0 -0.0
  outer loop
    vertex -1.9999999999999998 9.0 12.500000000000002
    vertex 9.0 9.0 0.9999999999999999
    vertex -1.9999999999999998 9.0 0.9999999999999999
  endloop
endfacet
facet normal -0.0 1.0 -0.0
  outer loop
    vertex 9.0 9.0 0.9999999999999999
    vertex -1.9999999999999998 9.0 12.500000000000002
    vertex 9.0 9.0 12.500000000000002
  endloop
endfacet
facet normal 1.0 -0.0 -0.0
  outer loop
    vertex 9.0 9.0 0.9999999999999999
    vertex 9.0 -1.9999999999999998 12.500000000000002
    vertex 9.0 -1.9999999999999998 0.9999999999999999
  endloop
endfacet
facet normal 1.0 -0.0 -0.0
  outer loop
    vertex 9.0 -1.9999999999999998 12.500000000000002
    vertex 9.0 9.0 0.9999999999999999
    vertex 9.0 9.0 12.500000000000002
  endloop
endfacet
facet normal 0.0 -1.0 0.0
  outer loop
    vertex 9.0 -1.9999999999999998 12.500000000000002
    vertex -1.9999999999999998 -1.9999999999999998 0.9999999999999999
    vertex 9.0 -1.9999999999999998 0.9999999999999999
  endloop
endfacet
facet normal 0.0 -1.0 0.0
  outer loop
    vertex -1.9999999999999998 -1.9999999999999998 0.9999999999999999
    vertex 9.0 -1.9999999999999998 12.500000000000002
    vertex -1.9999999999999998 -1.9999999999999998 12.500000000000002
  endloop
endfacet
facet normal -1.0 0.0 0.0
  outer loop
    vertex -1.9999999999999998 9.0 12.500000000000002
    vertex -1.9999999999999998 -1.9999999999999998 0.9999999999999999
    vertex -1.9999999999999998 -1.9999999999999998 12.500000000000002
  endloop
endfacet
facet normal -1.0 0.0 0.0
  outer loop
    vertex -1.9999999999999998 -1.9999999999999998 0.9999999999999999
    vertex -1.9999999999999998 9.0 12.500000000000002
    vertex -1.9999999999999998 9.0 0.9999999999999999
  endloop
endfacet
facet normal 0.0 -1.0 0.0
  outer loop
    vertex 7.0 7.0 3.9999999999999996
    vertex 0.0 7.0 0.9999999999999999
    vertex 7.0 7.0 0.9999999999999999
  endloop
endfacet
facet normal 0.0 -1.0 0.0
  outer loop
    vertex 0.0 7.0 0.9999999999999999
    vertex 7.0 7.0 3.9999999999999996
    vertex 0.0 7.0 3.9999999999999996
  endloop
endfacet
facet normal 1.0 -0.0 -0.0
  outer loop
    vertex 0.0 7.0 0.9999999999999999
    vertex 0.0 0.0 3.9999999999999996
    vertex 0.0 0.0 0.9999999999999999
  endloop
endfacet
facet normal 1.0 -0.0 -0.0
  outer loop
    vertex 0.0 0.0 3.9999999999999996
    vertex 0.0 7.0 0.9999999999999999
    vertex 0.0 7.0 3.9999999999999996
  endloop
endfacet
facet normal -0.0 1.0 -0.0
  outer loop
    vertex 0.0 0.0 3.9999999999999996
    vertex 7.0 0.0 0.9999999999999999
    vertex 0.0 0.0 0.9999999999999999
  endloop
endfacet
facet normal -0.0 1.0 -0.0
  outer loop
    vertex 7.0 0.0 0.9999999999999999
    vertex 0.0 0.0 3.9999999999999996
    vertex 7.0 0.0 3.9999999999999996
  endloop
endfacet
facet normal -1.0 0.0 0.0
  outer loop
    vertex 7.0 7.0 3.9999999999999996
    vertex 7.0 0.0 0.9999999999999999
    vertex 7.0 0.0 3.9999999999999996
  endloop
endfacet
facet normal -1.0 0.0 0.0
  outer loop
    vertex 7.0 0.0 0.9999999999999999
    vertex 7.0 7.0 3.9999999999999996
    vertex 7.0 7.0 0.9999999999999999
  endloop
endfacet
facet normal 0.0 0.0 -1.0
  outer loop
    vertex 7.0 7.0 3.9999999999999996
    vertex 0.0 0.0 3.9999999999999996
    vertex 0.0 7.0 3.9999999999999996
  endloop
endfacet
facet normal 0.0 0.0 -1.0
  outer loop
    vertex 0.0 0.0 3.9999999999999996
    vertex 7.0 7.0 3.9999999999999996
    vertex 7.0 0.0 3.9999999999999996
  endloop
endfacet
facet normal -0.0 -0.0 1.0
  outer loop
    vertex -1.9999999999999998 -1.9999999999999998 12.500000000000002
    vertex -0.9609700476081211 2.9127021515698237 12.499999999999993
    vertex -1.9999999999999998 9.0 12.500000000000002
  endloop
endfacet
facet normal -0.0 -0.0 1.0
  outer loop
    vertex -0.9609700476081211 2.9127021515698237 12.499999999999993
    vertex -1.9999999999999998 -1.9999999999999998 12.500000000000002
    vertex -0.8461480785889269 2.335453132155995 12.499999999999993
  endloop
endfacet
facet normal -0.0 -0.0 1.0
  outer loop
    vertex -0.8461480785889269 2.335453132155995 12.499999999999993
    vertex -1.9999999999999998 -1.9999999999999998 12.500000000000002
    vertex -0.6569623109651868 1.7781298325243928 12.499999999999993
  endloop
endfacet
facet normal -0.0 -0.0 1.0
  outer loop
    vertex -0.6569623109651868 1.7781298325243928 12.499999999999993
    vertex -1.9999999999999998 -1.9999999999999998 12.500000000000002
    vertex -0.3966497656731512 1.2502682088509116 12.499999999999993
  endloop
endfacet
facet normal -0.0 -0.0 1.0
  outer loop
    vertex -0.3966497656731512 1.2502682088509116 12.499999999999993
    vertex -1.9999999999999998 -1.9999999999999998 12.500000000000002
    vertex -0.0696644625350273 0.7609001198674717 12.499999999999993
  endloop
endfacet
facet normal -0.0 -0.0 1.0
  outer loop
    vertex -0.0696644625350273 0.7609001198674717 12.499999999999993
    vertex -1.9999999999999998 -1.9999999999999998 12.500000000000002
    vertex 0.31839878925503495 0.3183987892550563 12.499999999999993
  endloop
endfacet
facet normal -0.0 -0.0 1.0
  outer loop
    vertex 0.31839878925503495 0.3183987892550563 12.499999999999993
    vertex -1.9999999999999998 -1.9999999999999998 12.500000000000002
    vertex 0.760900119867477 -0.06966446253503017 12.499999999999993
  endloop
endfacet
facet normal -0.0 -0.0 1.0
  outer loop
    vertex 0.760900119867477 -0.06966446253503017 12.499999999999993
    vertex -1.9999999999999998 -1.9999999999999998 12.500000000000002
    vertex 1.2502682088509205 -0.3966497656731558 12.499999999999993
  endloop
endfacet
facet normal -0.0 -0.0 1.0
  outer loop
    vertex 1.2502682088509205 -0.3966497656731558 12.499999999999993
    vertex -1.9999999999999998 -1.9999999999999998 12.500000000000002
    vertex 1.7781298325244217 -0.6569623109652 12.499999999999993
  endloop
endfacet
facet normal -0.0 -0.0 1.0
  outer loop
    vertex 1.7781298325244217 -0.6569623109652 12.499999999999993
    vertex -1.9999999999999998 -1.9999999999999998 12.500000000000002
    vertex 2.335453132156014 -0.8461480785889333 12.499999999999993
  endloop
endfacet
facet normal -0.0 -0.0 1.0
  outer loop
    vertex 2.335453132156014 -0.8461480785889333 12.499999999999993
    vertex -1.9999999999999998 -1.9999999999999998 12.500000000000002
    vertex 2.912702151569842 -0.9609700476081223 12.499999999999993
  endloop
endfacet
facet normal -0.0 -0.0 1.0
  outer loop
    vertex 2.912702151569842 -0.9609700476081223 12.499999999999993
    vertex -1.9999999999999998 -1.9999999999999998 12.500000000000002
    vertex 9.0 -1.9999999999999998 12.500000000000002
  endloop
endfacet
facet normal -0.0 -0.0 1.0
  outer loop
    vertex -1.9999999999999998 9.0 12.500000000000002
    vertex -0.9609700476081211 2.9127021515698237 12.499999999999993
    vertex -0.9994635822981743 3.500000000000012 12.499999999999993
  endloop
endfacet
facet normal -0.0 -0.0 1.0
  outer loop
    vertex 2.912702151569842 -0.9609700476081223 12.499999999999993
    vertex 9.0 -1.9999999999999998 12.500000000000002
    vertex 3.499999999999992 -0.9994635822981751 12.499999999999993
  endloop
endfacet
facet normal -0.0 -0.0 1.0
  outer loop
    vertex 3.499999999999992 -0.9994635822981751 12.499999999999993
    vertex 9.0 -1.9999999999999998 12.500000000000002
    vertex 4.087297848430163 -0.9609700476081239 12.499999999999993
  endloop
endfacet
facet normal -0.0 -0.0 1.0
  outer loop
    vertex 4.087297848430163 -0.9609700476081239 12.499999999999993
    vertex 9.0 -1.9999999999999998 12.500000000000002
    vertex 4.664546867843991 -0.846148078588932 12.499999999999993
  endloop
endfacet
facet normal -0.0 -0.0 1.0
  outer loop
    vertex 4.664546867843991 -0.846148078588932 12.499999999999993
    vertex 9.0 -1.9999999999999998 12.500000000000002
    vertex 5.221870167475586 -0.6569623109651979 12.499999999999993
  endloop
endfacet
facet normal -0.0 -0.0 1.0
  outer loop
    vertex 5.221870167475586 -0.6569623109651979 12.499999999999993
    vertex 9.0 -1.9999999999999998 12.500000000000002
    vertex 5.749731791149091 -0.39664976567315086 12.499999999999993
  endloop
endfacet
facet normal -0.0 -0.0 1.0
  outer loop
    vertex 5.749731791149091 -0.39664976567315086 12.499999999999993
    vertex 9.0 -1.9999999999999998 12.500000000000002
    vertex 6.239099880132557 -0.06966446253500498 12.499999999999993
  endloop
endfacet
facet normal -0.0 -0.0 1.0
  outer loop
    vertex 6.239099880132557 -0.06966446253500498 12.499999999999993
    vertex 9.0 -1.9999999999999998 12.500000000000002
    vertex 6.681601210744957 0.31839878925505016 12.499999999999993
  endloop
endfacet
facet normal -0.0 -0.0 1.0
  outer loop
    vertex 6.681601210744957 0.31839878925505016 12.499999999999993
    vertex 9.0 -1.9999999999999998 12.500000000000002
    vertex 7.069664462535015 0.7609001198674553 12.499999999999993
  endloop
endfacet
facet normal -0.0 -0.0 1.0
  outer loop
    vertex 7.069664462535015 0.7609001198674553 12.499999999999993
    vertex 9.0 -1.9999999999999998 12.500000000000002
    vertex 7.39664976567316 1.250268208850922 12.499999999999993
  endloop
endfacet
facet normal -0.0 -0.0 1.0
  outer loop
    vertex 7.39664976567316 1.250268208850922 12.499999999999993
    vertex 9.0 -1.9999999999999998 12.500000000000002
    vertex 7.6569623109652 1.778129832524414 12.499999999999993
  endloop
endfacet
facet normal -0.0 -0.0 1.0
  outer loop
    vertex 7.6569623109652 1.778129832524414 12.499999999999993
    vertex 9.0 -1.9999999999999998 12.500000000000002
    vertex 7.846148078588937 2.335453132156017 12.499999999999993
  endloop
endfacet
facet normal -0.0 -0.0 1.0
  outer loop
    vertex 7.846148078588937 2.335453132156017 12.499999999999993
    vertex 9.0 -1.9999999999999998 12.500000000000002
    vertex 7.960970047608125 2.9127021515698504 12.499999999999993
  endloop
endfacet
facet normal -0.0 -0.0 1.0
  outer loop
    vertex 7.960970047608125 2.9127021515698504 12.499999999999993
    vertex 9.0 -1.9999999999999998 12.500000000000002
    vertex 7.999463582298176 3.4999999999999964 12.499999999999993
  endloop
endfacet
facet normal -0.0 -0.0 1.0
  outer loop
    vertex -1.9999999999999998 9.0 12.500000000000002
    vertex 2.9127021515698153 7.960970047608122 12.499999999999993
    vertex 9.0 9.0 12.500000000000002
  endloop
endfacet
facet normal -0.0 -0.0 1.0
  outer loop
    vertex 2.9127021515698153 7.960970047608122 12.499999999999993
    vertex -1.9999999999999998 9.0 12.500000000000002
    vertex 2.3354531321560086 7.846148078588933 12.499999999999993
  endloop
endfacet
facet normal -0.0 -0.0 1.0
  outer loop
    vertex 2.3354531321560086 7.846148078588933 12.499999999999993
    vertex -1.9999999999999998 9.0 12.500000000000002
    vertex 1.7781298325244193 7.656962310965201 12.499999999999993
  endloop
endfacet
facet normal -0.0 -0.0 1.0
  outer loop
    vertex 1.7781298325244193 7.656962310965201 12.499999999999993
    vertex -1.9999999999999998 9.0 12.500000000000002
    vertex 1.250268208850918 7.396649765673158 12.499999999999993
  endloop
endfacet
facet normal -0.0 -0.0 1.0
  outer loop
    vertex 1.250268208850918 7.396649765673158 12.499999999999993
    vertex -1.9999999999999998 9.0 12.500000000000002
    vertex 0.7609001198674686 7.0696644625350284 12.499999999999993
  endloop
endfacet
facet normal -0.0 -0.0 1.0
  outer loop
    vertex 0.7609001198674686 7.0696644625350284 12.499999999999993
    vertex -1.9999999999999998 9.0 12.500000000000002
    vertex 0.3183987892550481 6.681601210744957 12.499999999999993
  endloop
endfacet
facet normal -0.0 -0.0 1.0
  outer loop
    vertex 0.3183987892550481 6.681601210744957 12.499999999999993
    vertex -1.9999999999999998 9.0 12.500000000000002
    vertex -0.06966446253501951 6.2390998801325415 12.499999999999993
  endloop
endfacet
facet normal -0.0 -0.0 1.0
  outer loop
    vertex -0.06966446253501951 6.2390998801325415 12.499999999999993
    vertex -1.9999999999999998 9.0 12.500000000000002
    vertex -0.3966497656731538 5.749731791149088 12.499999999999993
  endloop
endfacet
facet normal -0.0 -0.0 1.0
  outer loop
    vertex -0.3966497656731538 5.749731791149088 12.499999999999993
    vertex -1.9999999999999998 9.0 12.500000000000002
    vertex -0.6569623109651979 5.221870167475585 12.499999999999993
  endloop
endfacet
facet normal -0.0 -0.0 1.0
  outer loop
    vertex -0.6569623109651979 5.221870167475585 12.499999999999993
    vertex -1.9999999999999998 9.0 12.500000000000002
    vertex -0.8461480785889385 4.664546867843965 12.499999999999993
  endloop
endfacet
facet normal -0.0 -0.0 1.0
  outer loop
    vertex -0.8461480785889385 4.664546867843965 12.499999999999993
    vertex -1.9999999999999998 9.0 12.500000000000002
    vertex -0.9609700476081218 4.087297848430176 12.499999999999993
  endloop
endfacet
facet normal -0.0 -0.0 1.0
  outer loop
    vertex -0.9609700476081218 4.087297848430176 12.499999999999993
    vertex -1.9999999999999998 9.0 12.500000000000002
    vertex -0.9994635822981743 3.500000000000012 12.499999999999993
  endloop
endfacet
facet normal -0.0 -0.0 1.0
  outer loop
    vertex 9.0 9.0 12.500000000000002
    vertex 2.9127021515698153 7.960970047608122 12.499999999999993
    vertex 3.5000000000000004 7.999463582298176 12.499999999999993
  endloop
endfacet
facet normal -0.0 -0.0 1.0
  outer loop
    vertex 9.0 9.0 12.500000000000002
    vertex 3.5000000000000004 7.999463582298176 12.499999999999993
    vertex 4.087297848430151 7.960970047608125 12.499999999999993
  endloop
endfacet
facet normal -0.0 -0.0 1.0
  outer loop
    vertex 9.0 9.0 12.500000000000002
    vertex 4.087297848430151 7.960970047608125 12.499999999999993
    vertex 4.664546867843985 7.846148078588933 12.499999999999993
  endloop
endfacet
facet normal -0.0 -0.0 1.0
  outer loop
    vertex 9.0 9.0 12.500000000000002
    vertex 4.664546867843985 7.846148078588933 12.499999999999993
    vertex 5.221870167475606 7.656962310965191 12.499999999999993
  endloop
endfacet
facet normal -0.0 -0.0 1.0
  outer loop
    vertex 9.0 9.0 12.500000000000002
    vertex 5.221870167475606 7.656962310965191 12.499999999999993
    vertex 5.749731791149078 7.396649765673157 12.499999999999993
  endloop
endfacet
facet normal -0.0 -0.0 1.0
  outer loop
    vertex 9.0 9.0 12.500000000000002
    vertex 5.749731791149078 7.396649765673157 12.499999999999993
    vertex 6.239099880132509 7.069664462535043 12.499999999999993
  endloop
endfacet
facet normal -0.0 -0.0 1.0
  outer loop
    vertex 9.0 9.0 12.500000000000002
    vertex 6.239099880132509 7.069664462535043 12.499999999999993
    vertex 6.681601210744957 6.681601210744952 12.499999999999993
  endloop
endfacet
facet normal -0.0 -0.0 1.0
  outer loop
    vertex 9.0 9.0 12.500000000000002
    vertex 6.681601210744957 6.681601210744952 12.499999999999993
    vertex 7.069664462535028 6.239099880132532 12.499999999999993
  endloop
endfacet
facet normal -0.0 -0.0 1.0
  outer loop
    vertex 9.0 9.0 12.500000000000002
    vertex 7.069664462535028 6.239099880132532 12.499999999999993
    vertex 7.3966497656731445 5.749731791149102 12.499999999999993
  endloop
endfacet
facet normal -0.0 -0.0 1.0
  outer loop
    vertex 9.0 9.0 12.500000000000002
    vertex 7.3966497656731445 5.749731791149102 12.499999999999993
    vertex 7.656962310965191 5.221870167475603 12.499999999999993
  endloop
endfacet
facet normal -0.0 -0.0 1.0
  outer loop
    vertex 9.0 9.0 12.500000000000002
    vertex 7.656962310965191 5.221870167475603 12.499999999999993
    vertex 7.846148078588933 4.664546867843995 12.499999999999993
  endloop
endfacet
facet normal -0.0 -0.0 1.0
  outer loop
    vertex 9.0 9.0 12.500000000000002
    vertex 7.846148078588933 4.664546867843995 12.499999999999993
    vertex 7.960970047608125 4.087297848430162 12.499999999999993
  endloop
endfacet
facet normal -0.0 -0.0 1.0
  outer loop
    vertex 9.0 9.0 12.500000000000002
    vertex 7.960970047608125 4.087297848430162 12.499999999999993
    vertex 7.999463582298176 3.4999999999999964 12.499999999999993
  endloop
endfacet
facet normal -0.0 -0.0 1.0
  outer loop
    vertex 9.0 9.0 12.500000000000002
    vertex 7.999463582298176 3.4999999999999964 12.499999999999993
    vertex 9.0 -1.9999999999999998 12.500000000000002
  endloop
endfacet
facet normal -0.4422886902190007 -0.8968727415326887 -0.0
  outer loop
    vertex 1.7781298325244217 -0.6569623109652 15.499999999999995
    vertex 1.2502682088509205 -0.3966497656731558 12.499999999999993
    vertex 1.7781298325244217 -0.6569623109652 12.499999999999993
  endloop
endfacet
facet normal -0.4422886902190007 -0.8968727415326887 -0.0
  outer loop
    vertex 1.2502682088509205 -0.3966497656731558 12.499999999999993
    vertex 1.7781298325244217 -0.6569623109652 15.499999999999995
    vertex 1.2502682088509205 -0.3966497656731558 15.499999999999995
  endloop
endfacet
facet normal -0.5555702330196001 -0.8314696123025469 -0.0
  outer loop
    vertex 1.2502682088509205 -0.3966497656731558 15.499999999999995
    vertex 0.760900119867477 -0.06966446253503017 12.499999999999993
    vertex 1.2502682088509205 -0.3966497656731558 12.499999999999993
  endloop
endfacet
facet normal -0.5555702330196001 -0.8314696123025469 -0.0
  outer loop
    vertex 0.760900119867477 -0.06966446253503017 12.499999999999993
    vertex 1.2502682088509205 -0.3966497656731558 15.499999999999995
    vertex 0.760900119867477 -0.06966446253503017 15.499999999999995
  endloop
endfacet
facet normal -0.6593458151000676 -0.7518398074789787 -0.0
  outer loop
    vertex 0.760900119867477 -0.06966446253503017 15.499999999999995
    vertex 0.31839878925503495 0.3183987892550563 12.499999999999993
    vertex 0.760900119867477 -0.06966446253503017 12.499999999999993
  endloop
endfacet
facet normal -0.6593458151000676 -0.7518398074789787 -0.0
  outer loop
    vertex 0.31839878925503495 0.3183987892550563 12.499999999999993
    vertex 0.760900119867477 -0.06966446253503017 15.499999999999995
    vertex 0.31839878925503495 0.3183987892550563 15.499999999999995
  endloop
endfacet
facet normal -0.7518398074789795 -0.6593458151000666 -0.0
  outer loop
    vertex -0.0696644625350273 0.7609001198674717 15.499999999999995
    vertex 0.31839878925503495 0.3183987892550563 12.499999999999993
    vertex 0.31839878925503495 0.3183987892550563 15.499999999999995
  endloop
endfacet
facet normal -0.7518398074789795 -0.6593458151000666 -0.0
  outer loop
    vertex 0.31839878925503495 0.3183987892550563 12.499999999999993
    vertex -0.0696644625350273 0.7609001198674717 15.499999999999995
    vertex -0.0696644625350273 0.7609001198674717 12.499999999999993
  endloop
endfacet
facet normal -0.8314696123025463 -0.5555702330196008 -0.0
  outer loop
    vertex -0.3966497656731512 1.2502682088509116 15.499999999999995
    vertex -0.0696644625350273 0.7609001198674717 12.499999999999993
    vertex -0.0696644625350273 0.7609001198674717 15.499999999999995
  endloop
endfacet
facet normal -0.8314696123025463 -0.5555702330196008 -0.0
  outer loop
    vertex -0.0696644625350273 0.7609001198674717 12.499999999999993
    vertex -0.3966497656731512 1.2502682088509116 15.499999999999995
    vertex -0.3966497656731512 1.2502682088509116 12.499999999999993
  endloop
endfacet
facet normal -0.8968727415326878 -0.44228869021900247 -0.0
  outer loop
    vertex -0.6569623109651868 1.7781298325243928 15.499999999999995
    vertex -0.3966497656731512 1.2502682088509116 12.499999999999993
    vertex -0.3966497656731512 1.2502682088509116 15.499999999999995
  endloop
endfacet
facet normal -0.8968727415326878 -0.44228869021900247 -0.0
  outer loop
    vertex -0.3966497656731512 1.2502682088509116 12.499999999999993
    vertex -0.6569623109651868 1.7781298325243928 15.499999999999995
    vertex -0.6569623109651868 1.7781298325243928 12.499999999999993
  endloop
endfacet
facet normal -0.946930129495104 -0.321439465303167 -0.0
  outer loop
    vertex -0.8461480785889269 2.335453132155995 15.499999999999995
    vertex -0.6569623109651868 1.7781298325243928 12.499999999999993
    vertex -0.6569623109651868 1.7781298325243928 15.499999999999995
  endloop
endfacet
facet normal -0.946930129495104 -0.321439465303167 -0.0
  outer loop
    vertex -0.6569623109651868 1.7781298325243928 12.499999999999993
    vertex -0.8461480785889269 2.335453132155995 15.499999999999995
    vertex -0.8461480785889269 2.335453132155995 12.499999999999993
  endloop
endfacet
facet normal -0.9807852804032294 -0.19509032201613347 -0.0
  outer loop
    vertex -0.9609700476081211 2.9127021515698237 15.499999999999995
    vertex -0.8461480785889269 2.335453132155995 12.499999999999993
    vertex -0.8461480785889269 2.335453132155995 15.499999999999995
  endloop
endfacet
facet normal -0.9807852804032294 -0.19509032201613347 -0.0
  outer loop
    vertex -0.8461480785889269 2.335453132155995 12.499999999999993
    vertex -0.9609700476081211 2.9127021515698237 15.499999999999995
    vertex -0.9609700476081211 2.9127021515698237 12.499999999999993
  endloop
endfacet
facet normal -0.9978589232386036 -0.06540312923014284 -0.0
  outer loop
    vertex -0.9994635822981743 3.500000000000012 15.499999999999995
    vertex -0.9609700476081211 2.9127021515698237 12.499999999999993
    vertex -0.9609700476081211 2.9127021515698237 15.499999999999995
  endloop
endfacet
facet normal -0.9978589232386036 -0.06540312923014284 -0.0
  outer loop
    vertex -0.9609700476081211 2.9127021515698237 12.499999999999993
    vertex -0.9994635822981743 3.500000000000012 15.499999999999995
    vertex -0.9994635822981743 3.500000000000012 12.499999999999993
  endloop
endfacet
facet normal -0.9978589232386036 0.06540312923014423 -0.0
  outer loop
    vertex -0.9609700476081218 4.087297848430176 15.499999999999995
    vertex -0.9994635822981743 3.500000000000012 12.499999999999993
    vertex -0.9994635822981743 3.500000000000012 15.499999999999995
  endloop
endfacet
facet normal -0.9978589232386036 0.06540312923014423 -0.0
  outer loop
    vertex -0.9994635822981743 3.500000000000012 12.499999999999993
    vertex -0.9609700476081218 4.087297848430176 15.499999999999995
    vertex -0.9609700476081218 4.087297848430176 12.499999999999993
  endloop
endfacet
facet normal -0.9807852804032304 0.1950903220161291 -0.0
  outer loop
    vertex -0.8461480785889385 4.664546867843965 15.499999999999995
    vertex -0.9609700476081218 4.087297848430176 12.499999999999993
    vertex -0.9609700476081218 4.087297848430176 15.499999999999995
  endloop
endfacet
facet normal -0.9807852804032304 0.1950903220161291 -0.0
  outer loop
    vertex -0.9609700476081218 4.087297848430176 12.499999999999993
    vertex -0.8461480785889385 4.664546867843965 15.499999999999995
    vertex -0.8461480785889385 4.664546867843965 12.499999999999993
  endloop
endfacet
facet normal -0.9469301294951069 0.3214394653031584 -0.0
  outer loop
    vertex -0.6569623109651979 5.221870167475585 15.499999999999995
    vertex -0.8461480785889385 4.664546867843965 12.499999999999993
    vertex -0.8461480785889385 4.664546867843965 15.499999999999995
  endloop
endfacet
facet normal -0.9469301294951069 0.3214394653031584 -0.0
  outer loop
    vertex -0.8461480785889385 4.664546867843965 12.499999999999993
    vertex -0.6569623109651979 5.221870167475585 15.499999999999995
    vertex -0.6569623109651979 5.221870167475585 12.499999999999993
  endloop
endfacet
facet normal -0.8968727415326895 0.44228869021899897 -0.0
  outer loop
    vertex -0.3966497656731538 5.749731791149088 15.499999999999995
    vertex -0.6569623109651979 5.221870167475585 12.499999999999993
    vertex -0.6569623109651979 5.221870167475585 15.499999999999995
  endloop
endfacet
facet normal -0.8968727415326895 0.44228869021899897 -0.0
  outer loop
    vertex -0.6569623109651979 5.221870167475585 12.499999999999993
    vertex -0.3966497656731538 5.749731791149088 15.499999999999995
    vertex -0.3966497656731538 5.749731791149088 12.499999999999993
  endloop
endfacet
facet normal -0.8314696123025449 0.5555702330196028 -0.0
  outer loop
    vertex -0.06966446253501951 6.2390998801325415 15.499999999999995
    vertex -0.3966497656731538 5.749731791149088 12.499999999999993
    vertex -0.3966497656731538 5.749731791149088 15.499999999999995
  endloop
endfacet
facet normal -0.8314696123025449 0.5555702330196028 -0.0
  outer loop
    vertex -0.3966497656731538 5.749731791149088 12.499999999999993
    vertex -0.06966446253501951 6.2390998801325415 15.499999999999995
    vertex -0.06966446253501951 6.2390998801325415 12.499999999999993
  endloop
endfacet
facet normal -0.7518398074789754 0.6593458151000713 -0.0
  outer loop
    vertex 0.3183987892550481 6.681601210744957 15.499999999999995
    vertex -0.06966446253501951 6.2390998801325415 12.499999999999993
    vertex -0.06966446253501951 6.2390998801325415 15.499999999999995
  endloop
endfacet
facet normal -0.7518398074789754 0.6593458151000713 -0.0
  outer loop
    vertex -0.06966446253501951 6.2390998801325415 12.499999999999993
    vertex 0.3183987892550481 6.681601210744957 15.499999999999995
    vertex 0.3183987892550481 6.681601210744957 12.499999999999993
  endloop
endfacet
facet normal -0.6593458151000713 0.7518398074789754 -0.0
  outer loop
    vertex 0.3183987892550481 6.681601210744957 15.499999999999995
    vertex 0.7609001198674686 7.0696644625350284 12.499999999999993
    vertex 0.3183987892550481 6.681601210744957 12.499999999999993
  endloop
endfacet
facet normal -0.6593458151000713 0.7518398074789754 -0.0
  outer loop
    vertex 0.7609001198674686 7.0696644625350284 12.499999999999993
    vertex 0.3183987892550481 6.681601210744957 15.499999999999995
    vertex 0.7609001198674686 7.0696644625350284 15.499999999999995
  endloop
endfacet
facet normal -0.5555702330195996 0.831469612302547 -0.0
  outer loop
    vertex 0.7609001198674686 7.0696644625350284 15.499999999999995
    vertex 1.250268208850918 7.396649765673158 12.499999999999993
    vertex 0.7609001198674686 7.0696644625350284 12.499999999999993
  endloop
endfacet
facet normal -0.5555702330195996 0.831469612302547 -0.0
  outer loop
    vertex 1.250268208850918 7.396649765673158 12.499999999999993
    vertex 0.7609001198674686 7.0696644625350284 15.499999999999995
    vertex 1.250268208850918 7.396649765673158 15.499999999999995
  endloop
endfacet
facet normal -0.4422886902189994 0.8968727415326895 -0.0
  outer loop
    vertex 1.250268208850918 7.396649765673158 15.499999999999995
    vertex 1.7781298325244193 7.656962310965201 12.499999999999993
    vertex 1.250268208850918 7.396649765673158 12.499999999999993
  endloop
endfacet
facet normal -0.4422886902189994 0.8968727415326895 -0.0
  outer loop
    vertex 1.7781298325244193 7.656962310965201 12.499999999999993
    vertex 1.250268208850918 7.396649765673158 15.499999999999995
    vertex 1.7781298325244193 7.656962310965201 15.499999999999995
  endloop
endfacet
facet normal -0.3214394653031611 0.9469301294951059 -0.0
  outer loop
    vertex 1.7781298325244193 7.656962310965201 15.499999999999995
    vertex 2.3354531321560086 7.846148078588933 12.499999999999993
    vertex 1.7781298325244193 7.656962310965201 12.499999999999993
  endloop
endfacet
facet normal -0.3214394653031611 0.9469301294951059 -0.0
  outer loop
    vertex 2.3354531321560086 7.846148078588933 12.499999999999993
    vertex 1.7781298325244193 7.656962310965201 15.499999999999995
    vertex 2.3354531321560086 7.846148078588933 15.499999999999995
  endloop
endfacet
facet normal -0.19509032201613274 0.9807852804032295 -0.0
  outer loop
    vertex 2.3354531321560086 7.846148078588933 15.499999999999995
    vertex 2.9127021515698153 7.960970047608122 12.499999999999993
    vertex 2.3354531321560086 7.846148078588933 12.499999999999993
  endloop
endfacet
facet normal -0.19509032201613274 0.9807852804032295 -0.0
  outer loop
    vertex 2.9127021515698153 7.960970047608122 12.499999999999993
    vertex 2.3354531321560086 7.846148078588933 15.499999999999995
    vertex 2.9127021515698153 7.960970047608122 15.499999999999995
  endloop
endfacet
facet normal -0.06540312923014431 0.9978589232386036 -0.0
  outer loop
    vertex 2.9127021515698153 7.960970047608122 15.499999999999995
    vertex 3.5000000000000004 7.999463582298176 12.499999999999993
    vertex 2.9127021515698153 7.960970047608122 12.499999999999993
  endloop
endfacet
facet normal -0.06540312923014431 0.9978589232386036 -0.0
  outer loop
    vertex 3.5000000000000004 7.999463582298176 12.499999999999993
    vertex 2.9127021515698153 7.960970047608122 15.499999999999995
    vertex 3.5000000000000004 7.999463582298176 15.499999999999995
  endloop
endfacet
facet normal 0.0654031292301434 0.9978589232386036 0.0
  outer loop
    vertex 3.5000000000000004 7.999463582298176 15.499999999999995
    vertex 4.087297848430151 7.960970047608125 12.499999999999993
    vertex 3.5000000000000004 7.999463582298176 12.499999999999993
  endloop
endfacet
facet normal 0.0654031292301434 0.9978589232386036 0.0
  outer loop
    vertex 4.087297848430151 7.960970047608125 12.499999999999993
    vertex 3.5000000000000004 7.999463582298176 15.499999999999995
    vertex 4.087297848430151 7.960970047608125 15.499999999999995
  endloop
endfacet
facet normal 0.19509032201612855 0.9807852804032305 0.0
  outer loop
    vertex 4.087297848430151 7.960970047608125 15.499999999999995
    vertex 4.664546867843985 7.846148078588933 12.499999999999993
    vertex 4.087297848430151 7.960970047608125 12.499999999999993
  endloop
endfacet
facet normal 0.19509032201612855 0.9807852804032305 0.0
  outer loop
    vertex 4.664546867843985 7.846148078588933 12.499999999999993
    vertex 4.087297848430151 7.960970047608125 15.499999999999995
    vertex 4.664546867843985 7.846148078588933 15.499999999999995
  endloop
endfacet
facet normal 0.32143946530315987 0.9469301294951062 0.0
  outer loop
    vertex 4.664546867843985 7.846148078588933 15.499999999999995
    vertex 5.221870167475606 7.656962310965191 12.499999999999993
    vertex 4.664546867843985 7.846148078588933 12.499999999999993
  endloop
endfacet
facet normal 0.32143946530315987 0.9469301294951062 0.0
  outer loop
    vertex 5.221870167475606 7.656962310965191 12.499999999999993
    vertex 4.664546867843985 7.846148078588933 15.499999999999995
    vertex 5.221870167475606 7.656962310965191 15.499999999999995
  endloop
endfacet
facet normal 0.44228869021900663 0.8968727415326857 0.0
  outer loop
    vertex 5.221870167475606 7.656962310965191 15.499999999999995
    vertex 5.749731791149078 7.396649765673157 12.499999999999993
    vertex 5.221870167475606 7.656962310965191 12.499999999999993
  endloop
endfacet
facet normal 0.44228869021900663 0.8968727415326857 0.0
  outer loop
    vertex 5.749731791149078 7.396649765673157 12.499999999999993
    vertex 5.221870167475606 7.656962310965191 15.499999999999995
    vertex 5.749731791149078 7.396649765673157 15.499999999999995
  endloop
endfacet
facet normal 0.5555702330195965 0.8314696123025491 0.0
  outer loop
    vertex 5.749731791149078 7.396649765673157 15.499999999999995
    vertex 6.239099880132509 7.069664462535043 12.499999999999993
    vertex 5.749731791149078 7.396649765673157 12.499999999999993
  endloop
endfacet
facet normal 0.5555702330195965 0.8314696123025491 0.0
  outer loop
    vertex 6.239099880132509 7.069664462535043 12.499999999999993
    vertex 5.749731791149078 7.396649765673157 15.499999999999995
    vertex 6.239099880132509 7.069664462535043 15.499999999999995
  endloop
endfacet
facet normal 0.6593458151000666 0.7518398074789795 0.0
  outer loop
    vertex 6.239099880132509 7.069664462535043 15.499999999999995
    vertex 6.681601210744957 6.681601210744952 12.499999999999993
    vertex 6.239099880132509 7.069664462535043 12.499999999999993
  endloop
endfacet
facet normal 0.6593458151000666 0.7518398074789795 0.0
  outer loop
    vertex 6.681601210744957 6.681601210744952 12.499999999999993
    vertex 6.239099880132509 7.069664462535043 15.499999999999995
    vertex 6.681601210744957 6.681601210744952 15.499999999999995
  endloop
endfacet
facet normal 0.7518398074789766 0.6593458151000701 0.0
  outer loop
    vertex 6.681601210744957 6.681601210744952 12.499999999999993
    vertex 7.069664462535028 6.239099880132532 15.499999999999995
    vertex 7.069664462535028 6.239099880132532 12.499999999999993
  endloop
endfacet
facet normal 0.7518398074789766 0.6593458151000701 0.0
  outer loop
    vertex 7.069664462535028 6.239099880132532 15.499999999999995
    vertex 6.681601210744957 6.681601210744952 12.499999999999993
    vertex 6.681601210744957 6.681601210744952 15.499999999999995
  endloop
endfacet
facet normal 0.8314696123025466 0.5555702330196004 0.0
  outer loop
    vertex 7.069664462535028 6.239099880132532 12.499999999999993
    vertex 7.3966497656731445 5.749731791149102 15.499999999999995
    vertex 7.3966497656731445 5.749731791149102 12.499999999999993
  endloop
endfacet
facet normal 0.8314696123025466 0.5555702330196004 0.0
  outer loop
    vertex 7.3966497656731445 5.749731791149102 15.499999999999995
    vertex 7.069664462535028 6.239099880132532 12.499999999999993
    vertex 7.069664462535028 6.239099880132532 15.499999999999995
  endloop
endfacet
facet normal 0.8968727415326858 0.4422886902190064 0.0
  outer loop
    vertex 7.3966497656731445 5.749731791149102 12.499999999999993
    vertex 7.656962310965191 5.221870167475603 15.499999999999995
    vertex 7.656962310965191 5.221870167475603 12.499999999999993
  endloop
endfacet
facet normal 0.8968727415326858 0.4422886902190064 0.0
  outer loop
    vertex 7.656962310965191 5.221870167475603 15.499999999999995
    vertex 7.3966497656731445 5.749731791149102 12.499999999999993
    vertex 7.3966497656731445 5.749731791149102 15.499999999999995
  endloop
endfacet
facet normal 0.946930129495104 0.32143946530316686 0.0
  outer loop
    vertex 7.656962310965191 5.221870167475603 12.499999999999993
    vertex 7.846148078588933 4.664546867843995 15.499999999999995
    vertex 7.846148078588933 4.664546867843995 12.499999999999993
  endloop
endfacet
facet normal 0.946930129495104 0.32143946530316686 0.0
  outer loop
    vertex 7.846148078588933 4.664546867843995 15.499999999999995
    vertex 7.656962310965191 5.221870167475603 12.499999999999993
    vertex 7.656962310965191 5.221870167475603 15.499999999999995
  endloop
endfacet
facet normal 0.9807852804032305 0.19509032201612855 0.0
  outer loop
    vertex 7.846148078588933 4.664546867843995 12.499999999999993
    vertex 7.960970047608125 4.087297848430162 15.499999999999995
    vertex 7.960970047608125 4.087297848430162 12.499999999999993
  endloop
endfacet
facet normal 0.9807852804032305 0.19509032201612855 0.0
  outer loop
    vertex 7.960970047608125 4.087297848430162 15.499999999999995
    vertex 7.846148078588933 4.664546867843995 12.499999999999993
    vertex 7.846148078588933 4.664546867843995 15.499999999999995
  endloop
endfacet
facet normal 0.9978589232386036 0.06540312923014174 0.0
  outer loop
    vertex 7.960970047608125 4.087297848430162 12.499999999999993
    vertex 7.999463582298176 3.4999999999999964 15.499999999999995
    vertex 7.999463582298176 3.4999999999999964 12.499999999999993
  endloop
endfacet
facet normal 0.9978589232386036 0.06540312923014174 0.0
  outer loop
    vertex 7.999463582298176 3.4999999999999964 15.499999999999995
    vertex 7.960970047608125 4.087297848430162 12.499999999999993
    vertex 7.960970047608125 4.087297848430162 15.499999999999995
  endloop
endfacet
facet normal 0.9978589232386035 -0.06540312923014391 -0.0
  outer loop
    vertex 7.999463582298176 3.4999999999999964 12.499999999999993
    vertex 7.960970047608125 2.9127021515698504 15.499999999999995
    vertex 7.960970047608125 2.9127021515698504 12.499999999999993
  endloop
endfacet
facet normal 0.9978589232386035 -0.06540312923014391 -0.0
  outer loop
    vertex 7.960970047608125 2.9127021515698504 15.499999999999995
    vertex 7.999463582298176 3.4999999999999964 12.499999999999993
    vertex 7.999463582298176 3.4999999999999964 15.499999999999995
  endloop
endfacet
facet normal 0.9807852804032313 -0.19509032201612403 -0.0
  outer loop
    vertex 7.960970047608125 2.9127021515698504 12.499999999999993
    vertex 7.846148078588937 2.335453132156017 15.499999999999995
    vertex 7.846148078588937 2.335453132156017 12.499999999999993
  endloop
endfacet
facet normal 0.9807852804032313 -0.19509032201612403 -0.0
  outer loop
    vertex 7.846148078588937 2.335453132156017 15.499999999999995
    vertex 7.960970047608125 2.9127021515698504 12.499999999999993
    vertex 7.960970047608125 2.9127021515698504 15.499999999999995
  endloop
endfacet
facet normal 0.9469301294951062 -0.3214394653031605 -0.0
  outer loop
    vertex 7.846148078588937 2.335453132156017 12.499999999999993
    vertex 7.6569623109652 1.778129832524414 15.499999999999995
    vertex 7.6569623109652 1.778129832524414 12.499999999999993
  endloop
endfacet
facet normal 0.9469301294951062 -0.3214394653031605 -0.0
  outer loop
    vertex 7.6569623109652 1.778129832524414 15.499999999999995
    vertex 7.846148078588937 2.335453132156017 12.499999999999993
    vertex 7.846148078588937 2.335453132156017 15.499999999999995
  endloop
endfacet
facet normal 0.8968727415326883 -0.4422886902190017 -0.0
  outer loop
    vertex 7.6569623109652 1.778129832524414 12.499999999999993
    vertex 7.39664976567316 1.250268208850922 15.499999999999995
    vertex 7.39664976567316 1.250268208850922 12.499999999999993
  endloop
endfacet
facet normal 0.8968727415326883 -0.4422886902190017 -0.0
  outer loop
    vertex 7.39664976567316 1.250268208850922 15.499999999999995
    vertex 7.6569623109652 1.778129832524414 12.499999999999993
    vertex 7.6569623109652 1.778129832524414 15.499999999999995
  endloop
endfacet
facet normal 0.8314696123025439 -0.5555702330196044 -0.0
  outer loop
    vertex 7.39664976567316 1.250268208850922 12.499999999999993
    vertex 7.069664462535015 0.7609001198674553 15.499999999999995
    vertex 7.069664462535015 0.7609001198674553 12.499999999999993
  endloop
endfacet
facet normal 0.8314696123025439 -0.5555702330196044 -0.0
  outer loop
    vertex 7.069664462535015 0.7609001198674553 15.499999999999995
    vertex 7.39664976567316 1.250268208850922 12.499999999999993
    vertex 7.39664976567316 1.250268208850922 15.499999999999995
  endloop
endfacet
facet normal 0.7518398074789759 -0.6593458151000706 -0.0
  outer loop
    vertex 7.069664462535015 0.7609001198674553 12.499999999999993
    vertex 6.681601210744957 0.31839878925505016 15.499999999999995
    vertex 6.681601210744957 0.31839878925505016 12.499999999999993
  endloop
endfacet
facet normal 0.7518398074789759 -0.6593458151000706 -0.0
  outer loop
    vertex 6.681601210744957 0.31839878925505016 15.499999999999995
    vertex 7.069664462535015 0.7609001198674553 12.499999999999993
    vertex 7.069664462535015 0.7609001198674553 15.499999999999995
  endloop
endfacet
facet normal 0.6593458151000723 -0.7518398074789744 -0.0
  outer loop
    vertex 6.681601210744957 0.31839878925505016 15.499999999999995
    vertex 6.239099880132557 -0.06966446253500498 12.499999999999993
    vertex 6.681601210744957 0.31839878925505016 12.499999999999993
  endloop
endfacet
facet normal 0.6593458151000723 -0.7518398074789744 -0.0
  outer loop
    vertex 6.239099880132557 -0.06966446253500498 12.499999999999993
    vertex 6.681601210744957 0.31839878925505016 15.499999999999995
    vertex 6.239099880132557 -0.06966446253500498 15.499999999999995
  endloop
endfacet
facet normal 0.555570233019606 -0.8314696123025427 -0.0
  outer loop
    vertex 6.239099880132557 -0.06966446253500498 15.499999999999995
    vertex 5.749731791149091 -0.39664976567315086 12.499999999999993
    vertex 6.239099880132557 -0.06966446253500498 12.499999999999993
  endloop
endfacet
facet normal 0.555570233019606 -0.8314696123025427 -0.0
  outer loop
    vertex 5.749731791149091 -0.39664976567315086 12.499999999999993
    vertex 6.239099880132557 -0.06966446253500498 15.499999999999995
    vertex 5.749731791149091 -0.39664976567315086 15.499999999999995
  endloop
endfacet
facet normal 0.4422886902190025 -0.8968727415326878 -0.0
  outer loop
    vertex 5.749731791149091 -0.39664976567315086 15.499999999999995
    vertex 5.221870167475586 -0.6569623109651979 12.499999999999993
    vertex 5.749731791149091 -0.39664976567315086 12.499999999999993
  endloop
endfacet
facet normal 0.4422886902190025 -0.8968727415326878 -0.0
  outer loop
    vertex 5.221870167475586 -0.6569623109651979 12.499999999999993
    vertex 5.749731791149091 -0.39664976567315086 15.499999999999995
    vertex 5.221870167475586 -0.6569623109651979 15.499999999999995
  endloop
endfacet
facet normal 0.32143946530316114 -0.9469301294951059 -0.0
  outer loop
    vertex 5.221870167475586 -0.6569623109651979 15.499999999999995
    vertex 4.664546867843991 -0.846148078588932 12.499999999999993
    vertex 5.221870167475586 -0.6569623109651979 12.499999999999993
  endloop
endfacet
facet normal 0.32143946530316114 -0.9469301294951059 -0.0
  outer loop
    vertex 4.664546867843991 -0.846148078588932 12.499999999999993
    vertex 5.221870167475586 -0.6569623109651979 15.499999999999995
    vertex 4.664546867843991 -0.846148078588932 15.499999999999995
  endloop
endfacet
facet normal 0.19509032201613036 -0.9807852804032302 -0.0
  outer loop
    vertex 4.664546867843991 -0.846148078588932 15.499999999999995
    vertex 4.087297848430163 -0.9609700476081239 12.499999999999993
    vertex 4.664546867843991 -0.846148078588932 12.499999999999993
  endloop
endfacet
facet normal 0.19509032201613036 -0.9807852804032302 -0.0
  outer loop
    vertex 4.087297848430163 -0.9609700476081239 12.499999999999993
    vertex 4.664546867843991 -0.846148078588932 15.499999999999995
    vertex 4.087297848430163 -0.9609700476081239 15.499999999999995
  endloop
endfacet
facet normal 0.06540312923014113 -0.9978589232386037 -0.0
  outer loop
    vertex 4.087297848430163 -0.9609700476081239 15.499999999999995
    vertex 3.499999999999992 -0.9994635822981751 12.499999999999993
    vertex 4.087297848430163 -0.9609700476081239 12.499999999999993
  endloop
endfacet
facet normal 0.06540312923014113 -0.9978589232386037 -0.0
  outer loop
    vertex 3.499999999999992 -0.9994635822981751 12.499999999999993
    vertex 4.087297848430163 -0.9609700476081239 15.499999999999995
    vertex 3.499999999999992 -0.9994635822981751 15.499999999999995
  endloop
endfacet
facet normal -0.06540312923014613 -0.9978589232386035 -0.0
  outer loop
    vertex 3.499999999999992 -0.9994635822981751 15.499999999999995
    vertex 2.912702151569842 -0.9609700476081223 12.499999999999993
    vertex 3.499999999999992 -0.9994635822981751 12.499999999999993
  endloop
endfacet
facet normal -0.06540312923014613 -0.9978589232386035 -0.0
  outer loop
    vertex 2.912702151569842 -0.9609700476081223 12.499999999999993
    vertex 3.499999999999992 -0.9994635822981751 15.499999999999995
    vertex 2.912702151569842 -0.9609700476081223 15.499999999999995
  endloop
endfacet
facet normal -0.19509032201612547 -0.980785280403231 -0.0
  outer loop
    vertex 2.912702151569842 -0.9609700476081223 15.499999999999995
    vertex 2.335453132156014 -0.8461480785889333 12.499999999999993
    vertex 2.912702151569842 -0.9609700476081223 12.499999999999993
  endloop
endfacet
facet normal -0.19509032201612547 -0.980785280403231 -0.0
  outer loop
    vertex 2.335453132156014 -0.8461480785889333 12.499999999999993
    vertex 2.912702151569842 -0.9609700476081223 15.499999999999995
    vertex 2.335453132156014 -0.8461480785889333 15.499999999999995
  endloop
endfacet
facet normal -0.32143946530316164 -0.9469301294951057 -0.0
  outer loop
    vertex 2.335453132156014 -0.8461480785889333 15.499999999999995
    vertex 1.7781298325244217 -0.6569623109652 12.499999999999993
    vertex 2.335453132156014 -0.8461480785889333 12.499999999999993
  endloop
endfacet
facet normal -0.32143946530316164 -0.9469301294951057 -0.0
  outer loop
    vertex 1.7781298325244217 -0.6569623109652 12.499999999999993
    vertex 2.335453132156014 -0.8461480785889333 15.499999999999995
    vertex 1.7781298325244217 -0.6569623109652 15.499999999999995
  endloop
endfacet
facet normal -0.0 -0.0 1.0
  outer loop
    vertex -0.9609700476081211 2.9127021515698237 15.499999999999995
    vertex -0.9609700476081218 4.087297848430176 15.499999999999995
    vertex -0.9994635822981743 3.500000000000012 15.499999999999995
  endloop
endfacet
facet normal -0.0 -0.0 1.0
  outer loop
    vertex -0.9609700476081218 4.087297848430176 15.499999999999995
    vertex -0.9609700476081211 2.9127021515698237 15.499999999999995
    vertex -0.8461480785889385 4.664546867843965 15.499999999999995
  endloop
endfacet
facet normal -0.0 -0.0 1.0
  outer loop
    vertex -0.8461480785889385 4.664546867843965 15.499999999999995
    vertex -0.9609700476081211 2.9127021515698237 15.499999999999995
    vertex -0.8461480785889269 2.335453132155995 15.499999999999995
  endloop
endfacet
facet normal -0.0 -0.0 1.0
  outer loop
    vertex -0.8461480785889385 4.664546867843965 15.499999999999995
    vertex -0.8461480785889269 2.335453132155995 15.499999999999995
    vertex -0.6569623109651979 5.221870167475585 15.499999999999995
  endloop
endfacet
facet normal -0.0 -0.0 1.0
  outer loop
    vertex -0.6569623109651979 5.221870167475585 15.499999999999995
    vertex -0.8461480785889269 2.335453132155995 15.499999999999995
    vertex -0.6569623109651868 1.7781298325243928 15.499999999999995
  endloop
endfacet
facet normal -0.0 -0.0 1.0
  outer loop
    vertex -0.6569623109651979 5.221870167475585 15.499999999999995
    vertex -0.6569623109651868 1.7781298325243928 15.499999999999995
    vertex -0.3966497656731538 5.749731791149088 15.499999999999995
  endloop
endfacet
facet normal -0.0 -0.0 1.0
  outer loop
    vertex -0.3966497656731538 5.749731791149088 15.499999999999995
    vertex -0.6569623109651868 1.7781298325243928 15.499999999999995
    vertex -0.3966497656731512 1.2502682088509116 15.499999999999995
  endloop
endfacet
facet normal -0.0 -0.0 1.0
  outer loop
    vertex -0.3966497656731538 5.749731791149088 15.499999999999995
    vertex -0.3966497656731512 1.2502682088509116 15.499999999999995
    vertex -0.06966446253501951 6.2390998801325415 15.499999999999995
  endloop
endfacet
facet normal -0.0 -0.0 1.0
  outer loop
    vertex -0.06966446253501951 6.2390998801325415 15.499999999999995
    vertex -0.3966497656731512 1.2502682088509116 15.499999999999995
    vertex -0.0696644625350273 0.7609001198674717 15.499999999999995
  endloop
endfacet
facet normal -0.0 -0.0 1.0
  outer loop
    vertex -0.06966446253501951 6.2390998801325415 15.499999999999995
    vertex -0.0696644625350273 0.7609001198674717 15.499999999999995
    vertex 0.31839878925503495 0.3183987892550563 15.499999999999995
  endloop
endfacet
facet normal -0.0 -0.0 1.0
  outer loop
    vertex -0.06966446253501951 6.2390998801325415 15.499999999999995
    vertex 0.31839878925503495 0.3183987892550563 15.499999999999995
    vertex 0.3183987892550481 6.681601210744957 15.499999999999995
  endloop
endfacet
facet normal -0.0 -0.0 1.0
  outer loop
    vertex 0.3183987892550481 6.681601210744957 15.499999999999995
    vertex 0.31839878925503495 0.3183987892550563 15.499999999999995
    vertex 0.760900119867477 -0.06966446253503017 15.499999999999995
  endloop
endfacet
facet normal -0.0 -0.0 1.0
  outer loop
    vertex 0.3183987892550481 6.681601210744957 15.499999999999995
    vertex 0.760900119867477 -0.06966446253503017 15.499999999999995
    vertex 0.7609001198674686 7.0696644625350284 15.499999999999995
  endloop
endfacet
facet normal -0.0 -0.0 1.0
  outer loop
    vertex 0.7609001198674686 7.0696644625350284 15.499999999999995
    vertex 0.760900119867477 -0.06966446253503017 15.499999999999995
    vertex 1.250268208850918 7.396649765673158 15.499999999999995
  endloop
endfacet
facet normal -0.0 -0.0 1.0
  outer loop
    vertex 1.250268208850918 7.396649765673158 15.499999999999995
    vertex 0.760900119867477 -0.06966446253503017 15.499999999999995
    vertex 1.2502682088509205 -0.3966497656731558 15.499999999999995
  endloop
endfacet
facet normal -0.0 -0.0 1.0
  outer loop
    vertex 1.250268208850918 7.396649765673158 15.499999999999995
    vertex 1.2502682088509205 -0.3966497656731558 15.499999999999995
    vertex 1.7781298325244193 7.656962310965201 15.499999999999995
  endloop
endfacet
facet normal -0.0 -0.0 1.0
  outer loop
    vertex 1.7781298325244193 7.656962310965201 15.499999999999995
    vertex 1.2502682088509205 -0.3966497656731558 15.499999999999995
    vertex 1.7781298325244217 -0.6569623109652 15.499999999999995
  endloop
endfacet
facet normal -0.0 -0.0 1.0
  outer loop
    vertex 1.7781298325244193 7.656962310965201 15.499999999999995
    vertex 1.7781298325244217 -0.6569623109652 15.499999999999995
    vertex 2.3354531321560086 7.846148078588933 15.499999999999995
  endloop
endfacet
facet normal -0.0 -0.0 1.0
  outer loop
    vertex 2.3354531321560086 7.846148078588933 15.499999999999995
    vertex 1.7781298325244217 -0.6569623109652 15.499999999999995
    vertex 2.335453132156014 -0.8461480785889333 15.499999999999995
  endloop
endfacet
facet normal -0.0 -0.0 1.0
  outer loop
    vertex 2.3354531321560086 7.846148078588933 15.499999999999995
    vertex 2.335453132156014 -0.8461480785889333 15.499999999999995
    vertex 2.9127021515698153 7.960970047608122 15.499999999999995
  endloop
endfacet
facet normal -0.0 -0.0 1.0
  outer loop
    vertex 2.9127021515698153 7.960970047608122 15.499999999999995
    vertex 2.335453132156014 -0.8461480785889333 15.499999999999995
    vertex 2.912702151569842 -0.9609700476081223 15.499999999999995
  endloop
endfacet
facet normal -0.0 -0.0 1.0
  outer loop
    vertex 2.9127021515698153 7.960970047608122 15.499999999999995
    vertex 2.912702151569842 -0.9609700476081223 15.499999999999995
    vertex 3.5000000000000004 7.999463582298176 15.499999999999995
  endloop
endfacet
facet normal -0.0 -0.0 1.0
  outer loop
    vertex 3.5000000000000004 7.999463582298176 15.499999999999995
    vertex 2.912702151569842 -0.9609700476081223 15.499999999999995
    vertex 3.499999999999992 -0.9994635822981751 15.499999999999995
  endloop
endfacet
facet normal -0.0 -0.0 1.0
  outer loop
    vertex 3.5000000000000004 7.999463582298176 15.499999999999995
    vertex 3.499999999999992 -0.9994635822981751 15.499999999999995
    vertex 4.087297848430163 -0.9609700476081239 15.499999999999995
  endloop
endfacet
facet normal -0.0 -0.0 1.0
  outer loop
    vertex 3.5000000000000004 7.999463582298176 15.499999999999995
    vertex 4.087297848430163 -0.9609700476081239 15.499999999999995
    vertex 4.087297848430151 7.960970047608125 15.499999999999995
  endloop
endfacet
facet normal -0.0 -0.0 1.0
  outer loop
    vertex 4.087297848430151 7.960970047608125 15.499999999999995
    vertex 4.087297848430163 -0.9609700476081239 15.499999999999995
    vertex 4.664546867843985 7.846148078588933 15.499999999999995
  endloop
endfacet
facet normal -0.0 -0.0 1.0
  outer loop
    vertex 4.664546867843985 7.846148078588933 15.499999999999995
    vertex 4.087297848430163 -0.9609700476081239 15.499999999999995
    vertex 4.664546867843991 -0.846148078588932 15.499999999999995
  endloop
endfacet
facet normal -0.0 -0.0 1.0
  outer loop
    vertex 4.664546867843985 7.846148078588933 15.499999999999995
    vertex 4.664546867843991 -0.846148078588932 15.499999999999995
    vertex 5.221870167475606 7.656962310965191 15.499999999999995
  endloop
endfacet
facet normal -0.0 -0.0 1.0
  outer loop
    vertex 5.221870167475606 7.656962310965191 15.499999999999995
    vertex 4.664546867843991 -0.846148078588932 15.499999999999995
    vertex 5.221870167475586 -0.6569623109651979 15.499999999999995
  endloop
endfacet
facet normal -0.0 -0.0 1.0
  outer loop
    vertex 5.221870167475606 7.656962310965191 15.499999999999995
    vertex 5.221870167475586 -0.6569623109651979 15.499999999999995
    vertex 5.749731791149091 -0.39664976567315086 15.499999999999995
  endloop
endfacet
facet normal -0.0 -0.0 1.0
  outer loop
    vertex 5.221870167475606 7.656962310965191 15.499999999999995
    vertex 5.749731791149091 -0.39664976567315086 15.499999999999995
    vertex 5.749731791149078 7.396649765673157 15.499999999999995
  endloop
endfacet
facet normal -0.0 -0.0 1.0
  outer loop
    vertex 5.749731791149078 7.396649765673157 15.499999999999995
    vertex 5.749731791149091 -0.39664976567315086 15.499999999999995
    vertex 6.239099880132509 7.069664462535043 15.499999999999995
  endloop
endfacet
facet normal -0.0 -0.0 1.0
  outer loop
    vertex 6.239099880132509 7.069664462535043 15.499999999999995
    vertex 5.749731791149091 -0.39664976567315086 15.499999999999995
    vertex 6.239099880132557 -0.06966446253500498 15.499999999999995
  endloop
endfacet
facet normal -0.0 -0.0 1.0
  outer loop
    vertex 6.239099880132509 7.069664462535043 15.499999999999995
    vertex 6.239099880132557 -0.06966446253500498 15.499999999999995
    vertex 6.681601210744957 6.681601210744952 15.499999999999995
  endloop
endfacet
facet normal -0.0 -0.0 1.0
  outer loop
    vertex 6.681601210744957 6.681601210744952 15.499999999999995
    vertex 6.239099880132557 -0.06966446253500498 15.499999999999995
    vertex 6.681601210744957 0.31839878925505016 15.499999999999995
  endloop
endfacet
facet normal -0.0 -0.0 1.0
  outer loop
    vertex 6.681601210744957 6.681601210744952 15.499999999999995
    vertex 6.681601210744957 0.31839878925505016 15.499999999999995
    vertex 7.069664462535015 0.7609001198674553 15.499999999999995
  endloop
endfacet
facet normal -0.0 -0.0 1.0
  outer loop
    vertex 6.681601210744957 6.681601210744952 15.499999999999995
    vertex 7.069664462535015 0.7609001198674553 15.499999999999995
    vertex 7.069664462535028 6.239099880132532 15.499999999999995
  endloop
endfacet
facet normal -0.0 -0.0 1.0
  outer loop
    vertex 7.069664462535028 6.239099880132532 15.499999999999995
    vertex 7.069664462535015 0.7609001198674553 15.499999999999995
    vertex 7.39664976567316 1.250268208850922 15.499999999999995
  endloop
endfacet
facet normal -0.0 -0.0 1.0
  outer loop
    vertex 7.069664462535028 6.239099880132532 15.499999999999995
    vertex 7.39664976567316 1.250268208850922 15.499999999999995
    vertex 7.3966497656731445 5.749731791149102 15.499999999999995
  endloop
endfacet
facet normal -0.0 -0.0 1.0
  outer loop
    vertex 7.3966497656731445 5.749731791149102 15.499999999999995
    vertex 7.39664976567316 1.250268208850922 15.499999999999995
    vertex 7.656962310965191 5.221870167475603 15.499999999999995
  endloop
endfacet
facet normal -0.0 -0.0 1.0
  outer loop
    vertex 7.656962310965191 5.221870167475603 15.499999999999995
    vertex 7.39664976567316 1.250268208850922 15.499999999999995
    vertex 7.6569623109652 1.778129832524414 15.499999999999995
  endloop
endfacet
facet normal -0.0 -0.0 1.0
  outer loop
    vertex 7.656962310965191 5.221870167475603 15.499999999999995
    vertex 7.6569623109652 1.778129832524414 15.499999999999995
    vertex 7.846148078588933 4.664546867843995 15.499999999999995
  endloop
endfacet
facet normal -0.0 -0.0 1.0
  outer loop
    vertex 7.846148078588933 4.664546867843995 15.499999999999995
    vertex 7.6569623109652 1.778129832524414 15.499999999999995
    vertex 7.846148078588937 2.335453132156017 15.499999999999995
  endloop
endfacet
facet normal -0.0 -0.0 1.0
  outer loop
    vertex 7.846148078588933 4.664546867843995 15.499999999999995
    vertex 7.846148078588937 2.335453132156017 15.499999999999995
    vertex 7.960970047608125 4.087297848430162 15.499999999999995
  endloop
endfacet
facet normal -0.0 -0.0 1.0
  outer loop
    vertex 7.960970047608125 4.087297848430162 15.499999999999995
    vertex 7.846148078588937 2.335453132156017 15.499999999999995
    vertex 7.960970047608125 2.9127021515698504 15.499999999999995
  endloop
endfacet
facet normal -0.0 -0.0 1.0
  outer loop
    vertex 7.960970047608125 4.087297848430162 15.499999999999995
    vertex 7.960970047608125 2.9127021515698504 15.499999999999995
    vertex 7.999463582298176 3.4999999999999964 15.499999999999995
  endloop
endfacet
endsolid Stop Button
